<?xml version="1.0" standalone="no"?>
<svg id="SvgjsSvg1001" width="600" height="600" xmlns="http://www.w3.org/2000/svg" version="1.1" xmlns:xlink="http://www.w3.org/1999/xlink" xmlns:svgjs="http://svgjs.com/svgjs" class="svg-paper" viewBox="0 0 600 600"><title id="SvgjsTitle1168">x=min(min(cos(y),cos(x)),sqrt(x*x + y*y))|y=min(sqrt(x*x + y*y),sqrt(x*x + y*y)*min(sqrt(x*x + y*y),cos(sqrt(x*x + y*y))))|dTest=0.0|sd=0.2|sm=0.2|ts=0.05 | generated with FlowLines</title><g id="SvgjsG1169"><polyline id="SvgjsPolyline1170" points="4.78,598.82 5,580.83 4.34,562.84 2.61,541.91 0,521.08" fill="none" stroke="#000000" stroke-width="1"/><polyline id="SvgjsPolyline1171" points="16.77,599.29 16.77,578.29 16.44,566.3 15.28,548.34 13.74,533.42 9.31,503.75 0.2,456.62" fill="none" stroke="#000000" stroke-width="1"/><polyline id="SvgjsPolyline1172" points="28.77,599.31 27.28,557.34 26.01,542.39 24.19,527.51 21.84,512.69 19.05,497.95 8.67,451.09 5.69,436.39 2.86,418.62 1.46,403.69 1.18,394.69 1.44,385.7 4.6,358.89 9.2,329.24 17.08,288 17.26,207 16.61,195.03 14.87,183.16 0.04,109.64" fill="none" stroke="#000000" stroke-width="1"/><polyline id="SvgjsPolyline1173" points="40.76,598.93 38.1,554.01 36.63,539.09 34.53,524.23 31.84,509.48 28.62,494.83 17.29,451.28 13.09,433.78 10.3,419.04 8.53,404.15 8.17,392.16 9.49,374.21 12.62,344.38 17.2,308.68" fill="none" stroke="#000000" stroke-width="1"/><polyline id="SvgjsPolyline1174" points="0.14,312.2 7.15,276.89 10.97,253.2 13.23,229.31 14.28,205.33 13.55,193.36 11.4,178.52 0.35,122.6" fill="none" stroke="#000000" stroke-width="1"/><polyline id="SvgjsPolyline1175" points="263.13,22.16 262.58,19.34 259.75,20.25 247.93,22.31 239.14,24.24 224.68,28.2 213.32,32.05 202.19,36.55 191.37,41.74 180.94,47.66 173.41,52.59 163.78,59.75 152.28,69.38 143.41,77.46 132.7,87.96 122.39,98.85 110.55,112.41 103,121.74 88.79,141.07 82.18,151.08 74.4,163.91 68.61,174.42 63.2,185.13 58.18,196.03 53.54,207.09 45.36,229.65 38.46,252.64 31.87,278.82 23.35,316.88 20.06,328.41" fill="none" stroke="#000000" stroke-width="1"/><polyline id="SvgjsPolyline1176" points="264.14,22.07 263.56,19.27 260.71,20.1 248.88,22.12 237.16,24.72 225.6,27.91 217.04,30.71 205.84,34.99 197.61,38.64 184.34,45.62 176.69,50.36 169.3,55.51 155.25,66.75 139.68,80.83 122.77,97.86 106.73,115.71 89.73,136.68 75.61,156.09 64.09,173.64 53.4,191.72 42.19,212.93 26.63,245.4 23.7,250.63 21.69,252.81" fill="none" stroke="#000000" stroke-width="1"/><polyline id="SvgjsPolyline1177" points="263.59,22.04 263.18,19.16 260.4,20.16 245.63,22.78 233.96,25.54 225.3,28.01 208.33,33.98 194.63,40.09 181.49,47.32 169.05,55.69 157.3,65.01 143.8,76.91 128.75,91.55 114.34,106.83 100.55,122.66 85.55,141.39 73.09,158.3 62.89,173.13 39.85,208.24 35.98,212.81 33.3,214.09 30.85,212.52 27.67,207.48 25.94,201.74 23.07,187.02 13.08,146.23 8.49,125.74 3.9,102.18 0.17,78.47" fill="none" stroke="#000000" stroke-width="1"/><polyline id="SvgjsPolyline1178" points="52.74,598.2 47.97,544.42 46.4,532.52 43.78,517.75 41.18,506.04 37.35,491.54 23.94,448.58 19.79,434.17 16.38,419.57 14.48,407.72 13.9,401.75 13.63,392.76 16.92,326.84 17.25,311.84" fill="none" stroke="#000000" stroke-width="1"/><polyline id="SvgjsPolyline1179" points="0.06,243.04 3.19,219.25 3.89,207.27 3.71,198.27 3.06,189.3 0.33,168.48" fill="none" stroke="#000000" stroke-width="1"/><polyline id="SvgjsPolyline1180" points="254.81,23.31 253.59,20.77 253.7,17.77 255.79,2.92" fill="none" stroke="#000000" stroke-width="1"/><polyline id="SvgjsPolyline1181" points="252.78,20.69 250.24,26.1 246.58,37.53 231.56,89.4 214.24,146.84 208,170.01 205.47,181.74 203.64,193.6 203.1,199.57 201.82,226.54 200.35,241.47 198.25,253.28 195.86,261.95 193.84,267.6 190.32,275.88 175.74,305.49 169.46,319.11 163.67,332.94 158.36,346.97 153.49,361.16 148.1,378.33 129.12,444.67 125.41,456.08 121.21,467.32 116.14,478.19 111.3,485.77 107.26,490.19 104.9,492.04 102.3,493.53 99.48,494.55 96.53,495.04 93.53,494.99 87.71,493.6 82.28,491.07 77.21,487.87 67.9,480.31 57.42,469.58 51.67,462.67 46.29,455.45 38.24,442.8 31.47,429.43 28.14,421.07 26.28,415.36 24.14,406.62 23.23,400.7 19.81,367.87 18.13,346.94 17.39,328.96 17.18,304.99" fill="none" stroke="#000000" stroke-width="1"/><polyline id="SvgjsPolyline1182" points="253.3,21 251.99,23.7 250.44,21.38 248.99,24.01 246.94,22.15 245.39,24.72 243.37,22.77 241.62,25.2 239.16,23.79 238.91,17.82 240.56,2.91" fill="none" stroke="#000000" stroke-width="1"/><polyline id="SvgjsPolyline1183" points="250.85,23.91 249.53,21.39 248,23.97 245.65,22.48 244.08,25.03 242.24,22.88 239.68,24.41 236.8,29.67 234.6,35.25 228.85,52.3 214.74,98.18 204.33,132.64 198.67,152.87 195.11,167.44 192.75,179.2 189.07,205.95 186.48,220.72 183.8,232.41 179.57,246.8 173.36,263.69 153.51,310.67 142.83,338.7 132.43,370.02 114.94,427.41 111.1,438.78 106.83,449.99 101.81,460.89 97.16,468.59 93.34,473.21 91.11,475.2 88.61,476.86 85.87,478.07 82.95,478.73 79.96,478.82 76.99,478.38 71.36,476.34 63.78,471.51 57.03,465.57 49.01,456.65 41.94,446.97 38.74,441.89 34.38,434.02 29.46,423.08 26.54,414.57 24.41,405.83 20.46,373.07 18.75,355.15 17.78,340.18 17.33,325.19 17.27,307.19" fill="none" stroke="#000000" stroke-width="1"/><polyline id="SvgjsPolyline1184" points="257.04,20.29 255.82,23.02 254.15,20.87 252.86,23.58 251.39,21.2 249.98,23.84 247.96,21.96 246.46,24.55 244.53,22.52 242.83,24.99 240.43,23.51 238.58,25.87 236.11,24.44 233.78,26.31 230.83,26.05 228.29,27.64 225.31,27.61 224.38,24.78 224.1,18.79 224.6,9.81 225.59,0.86" fill="none" stroke="#000000" stroke-width="1"/><polyline id="SvgjsPolyline1185" points="239.66,23.48 237.58,25.63 234.73,24.99 232.05,26.33 229.08,26.72 226.32,27.89 224.24,30.05 222.55,32.53 219.77,37.84 214.03,51.69 207.98,68.65 200.43,91.43 192.32,117.18 186.42,137.33 182.58,151.84 179.87,163.52 174.43,193.02 171.28,207.69 166.74,225.11 161.39,242.29 155.38,259.25 138.34,304.13 130.24,326.72 120.84,355.21 104.02,409.67 96.12,432.33 91.43,443.37 88.72,448.72 85.63,453.86 81.98,458.62 79.83,460.72 77.41,462.48 74.71,463.76 71.79,464.46 68.8,464.5 65.85,463.97 60.33,461.65 57.79,460.06 53.09,456.34 46.82,449.9 41.32,442.77 36.5,435.18 31.1,424.47 26.97,413.21 25.46,407.41 24.4,401.5 21.25,377.71 19.25,359.82 18.06,344.87 17.36,326.88" fill="none" stroke="#000000" stroke-width="1"/><polyline id="SvgjsPolyline1186" points="223.6,28.53 215.11,31.5 212.16,32.06 210.44,29.64 209.68,26.74 209.35,23.76 209.14,17.77 209.58,2.77" fill="none" stroke="#000000" stroke-width="1"/><polyline id="SvgjsPolyline1187" points="202.24,35.88 199.86,34.12 198.6,31.4 197.92,28.48 196.36,16.59 195.19,1.64" fill="none" stroke="#000000" stroke-width="1"/><polyline id="SvgjsPolyline1188" points="213.4,32.67 211.17,34.67 207.5,39.4 204.47,44.58 200.48,52.65 193.45,69.21 185.13,91.72 176.6,117.34 169.84,140.37 166.19,154.91 157.82,193 149.93,221.94 142.65,244.81 116.44,321.45 91.63,401.7 84.63,421.5 78.53,435.19 73.87,442.89 69.96,447.42 67.59,449.26 64.89,450.56 61.96,451.16 58.97,451.01 56.08,450.24 53.36,448.99 48.44,445.57 44.13,441.39 40.32,436.76 35.39,429.24 32.58,423.94 30.14,418.46 28.1,412.82 26.48,407.04 22.93,386.35 20.38,368.53" fill="none" stroke="#000000" stroke-width="1"/><polyline id="SvgjsPolyline1189" points="260.26,22.53 259.03,20.07 235.59,25.12 218.34,30.26 196,39.02 193.1,39.75 190.26,38.83 188.38,36.51 187.03,33.83 184.91,28.22 182.02,16.58 179.71,1.77" fill="none" stroke="#000000" stroke-width="1"/><polyline id="SvgjsPolyline1190" points="258.05,20.42 240.4,23.94 225.91,27.82 208.92,33.74 186.88,43.24 183.97,43.97 181,43.64 178.45,42.08 176.43,39.87 173.17,34.83 170.64,29.4 167.12,17.94 163.56,0.3" fill="none" stroke="#000000" stroke-width="1"/><polyline id="SvgjsPolyline1191" points="200.83,37.73 196.11,41.42 192.04,45.83 188.5,50.66 183.82,58.35 178.21,68.96 173.13,79.83 167.31,93.65 161.95,107.66 157.04,121.83 152.6,136.16 140.44,182.59 132.22,211.44 103.55,303.06 83.21,372.13 76.99,392.19 70.95,409.14 66.07,420.1 63.11,425.31 59.51,430.1 57.33,432.16 54.79,433.73 51.89,434.45 48.91,434.17 46.12,433.1 43.58,431.5 41.3,429.56 37.35,425.05 34.07,420.03 31.37,414.68 28.35,406.21 23.65,385.74 20.59,368.01 18.81,353.11" fill="none" stroke="#000000" stroke-width="1"/><polyline id="SvgjsPolyline1192" points="188.41,43.12 177.51,48.12 174.62,48.92 171.62,49.03 168.75,48.2 166.23,46.58 161.98,42.35 160.16,39.97 157.23,34.74 153.93,26.37 150.66,14.83 147.53,0.16" fill="none" stroke="#000000" stroke-width="1"/><polyline id="SvgjsPolyline1193" points="196.17,39.43 188.41,43.98 181.37,49.57 175.16,56.08 169.65,63.19 163.13,73.26 155.8,86.34 149.18,99.8 143.22,113.57 137.91,127.6 133.23,141.85 102.55,242.26 88.22,291.21 68.18,363.48 62.03,383.56 56.87,397.64 54.43,403.12 51.57,408.39 47.95,413.16 45.62,415.04 42.82,416.05 39.88,415.61 37.36,414.01 35.3,411.84 32.05,406.8 29.51,401.37 27.41,395.75 23.38,381.31 20.58,366.57 18.46,348.7 17.46,330.73 17.27,306.74" fill="none" stroke="#000000" stroke-width="1"/><polyline id="SvgjsPolyline1194" points="180.9,47.98 173.62,53.26 164.64,61.21 156.49,70.02 149.07,79.45 142.29,89.34 134.61,102.22 127.62,115.49 120.23,131.9 113.53,148.61 105.3,171.15 96.72,196.75 88.68,222.53 76.27,265.78 55.07,347.06 48.38,370.11 44.32,381.4 41.84,386.86 38.68,391.95 36.57,394.07 33.82,395.13 31.06,394.13 29.02,391.94 27.47,389.38 25.12,383.86 23.36,378.13 21.35,369.36" fill="none" stroke="#000000" stroke-width="1"/><polyline id="SvgjsPolyline1195" points="176.23,50.76 166.57,57.87 155.26,67.72 144.77,78.43 133.18,92.2 124.35,104.33 114.81,119.59 107.65,132.76 98.53,151.67 91.43,168.21 85.98,182.19 79.92,199.14 74.31,216.24 67.42,239.23 61.09,262.38 43.84,332.28 39.24,349.68 36.62,358.29 33.48,366.72 30.62,371.99 28.49,374.06 25.68,373.84 23.84,371.51 21.7,365.92 19.8,357.13 18.62,348.21 17.71,336.24 17.33,324.25 17.29,306.25" fill="none" stroke="#000000" stroke-width="1"/><polyline id="SvgjsPolyline1196" points="178.15,49.43 165.93,58.13 152.18,69.74 137.14,84.39 125.1,97.77 113.89,111.84 103.55,126.57 94.12,141.9 85.59,157.75 79.13,171.28 72.11,187.86 65.8,204.71 60.11,221.79 53.31,244.81 47.9,265.1 30.4,338.02 26.73,349.44 25.48,352.17 23.73,354.58" fill="none" stroke="#000000" stroke-width="1"/><polyline id="SvgjsPolyline1197" points="277.48,17.91 267.3,58.65 258.61,90.49 250.81,116.33 235.94,161.97 230.77,179.22 228.61,187.95 227,196.8 226.41,202.77 226.42,208.77 227.37,214.68 228.35,217.52 229.78,220.15 231.7,222.44 234.11,224.22 236.87,225.39 239.81,225.94 242.81,225.99 248.71,224.99 254.37,223.02 262.43,219.03 277.87,209.78 283.43,207.57 286.33,207.03" fill="none" stroke="#000000" stroke-width="1"/><polyline id="SvgjsPolyline1198" points="212.35,32.41 204,35.77 195.81,39.5 187.79,43.57 172.02,52.25 166.57,54.76 163.71,55.66 160.75,56.13 157.76,55.97 154.9,55.08 149.74,52.03 147.45,50.09 143.7,45.43 140.77,40.2 138.38,34.69 135.48,26.18 132.4,14.58 129.87,2.85" fill="none" stroke="#000000" stroke-width="1"/><polyline id="SvgjsPolyline1199" points="175.37,50.84 165.15,57.13 159.87,59.97 154.31,62.22 151.39,62.92 148.4,63.17 145.43,62.82 139.78,60.83 137.18,59.34 134.85,57.45 130.98,52.88 127.92,47.73 124.33,39.48 121.51,30.93 119.16,22.25 114.78,1.71" fill="none" stroke="#000000" stroke-width="1"/><polyline id="SvgjsPolyline1200" points="173.57,52.21 153.62,65.55 148.41,68.53 142.96,71.02 137.17,72.56 134.18,72.71 128.25,71.86 125.4,70.91 122.77,69.48 120.4,67.65 118.3,65.51 114.78,60.66 111.98,55.36 108.63,47.01 105.96,38.41 103.05,26.77 97.99,0.25" fill="none" stroke="#000000" stroke-width="1"/><polyline id="SvgjsPolyline1201" points="164.22,58.94 142.29,74.68 134.54,79.25 129.06,81.68 123.24,83.06 117.24,83.11 114.28,82.65 111.46,81.65 108.85,80.17 104.47,76.09 101.06,71.16 98.35,65.82 95.13,57.41 91.82,45.88 89.19,34.18 86.46,19.43 83.67,1.65" fill="none" stroke="#000000" stroke-width="1"/><polyline id="SvgjsPolyline1202" points="162.17,60.68 136.11,80.92 128.75,86.11 121.02,90.7 115.51,93.06 112.61,93.84 106.66,94.56 103.66,94.47 100.74,93.83 97.99,92.63 95.51,90.95 93.33,88.89 89.76,84.08 85.81,76.01 82.86,67.51 79.84,55.9 76.9,41.19 74.51,26.38 71.3,2.6" fill="none" stroke="#000000" stroke-width="1"/><polyline id="SvgjsPolyline1203" points="155.37,66.25 120.76,95.01 113.52,100.35 105.84,105.03 100.29,107.29 94.42,108.52 91.43,108.71 88.46,108.37 85.61,107.45 82.98,106.01 80.64,104.14 78.58,101.96 76.76,99.58 73.73,94.4 70.25,86.11 66.92,74.59 64.59,62.82 61.96,45.01 57.08,0.28" fill="none" stroke="#000000" stroke-width="1"/><polyline id="SvgjsPolyline1204" points="144.09,76.07 110.66,106.19 103.75,111.96 96.47,117.24 91.24,120.17 88.45,121.28 82.64,122.74 79.65,123.03 76.67,122.77 73.8,121.9 71.16,120.49 68.8,118.64 64.86,114.14 60.37,106.35 56.03,95.17 52.83,83.61 49.93,68.89 47.94,54.03 43.82,0.19" fill="none" stroke="#000000" stroke-width="1"/><polyline id="SvgjsPolyline1205" points="137.55,82.3 98.74,119.85 92.05,125.87 84.98,131.43 79.86,134.55 77.1,135.74 71.3,137.23 68.31,137.46 65.35,137.06 62.55,135.99 60.02,134.39 57.78,132.39 54.05,127.71 51.03,122.53 48.49,117.09 44.4,105.81 39.88,88.4 36.67,70.69 34.5,52.82 33.39,37.86 31.91,1.89" fill="none" stroke="#000000" stroke-width="1"/><polyline id="SvgjsPolyline1206" points="128.94,90.81 116.26,103.59 87.21,133.92 80.78,140.22 73.98,146.12 69,149.44 66.26,150.67 60.41,151.94 57.42,151.9 54.54,151.06 51.96,149.55 49.7,147.58 45.97,142.89 42.96,137.7 39.26,129.5 34.42,115.31 32.05,106.63 29.35,94.94 25.69,74.26 22.94,50.42 21.72,29.46 21.33,2.46" fill="none" stroke="#000000" stroke-width="1"/><polyline id="SvgjsPolyline1207" points="118.36,101.75 104.01,117.08 75.84,148.23 67.4,156.75 62.83,160.64 60.34,162.31 57.61,163.53 51.67,164.24 48.74,163.64 46.13,162.18 43.9,160.18 40.3,155.4 37.39,150.15 34.92,144.69 31.72,136.28 28.95,127.72 25.74,116.15 20.62,92.71 17.31,71.97 14.79,48.11 13.69,27.14 13.72,0.14" fill="none" stroke="#000000" stroke-width="1"/><polyline id="SvgjsPolyline1208" points="126.35,93.74 115.97,104.56 101.85,120.1 66.99,161.34 60.99,168.05 56.74,172.29 51.99,175.93 49.2,177 43.3,176.23 40.75,174.68 38.66,172.53 35.38,167.52 31.53,159.39 28.33,150.98 24.65,139.56 21.43,128 18.58,116.34 15.47,101.67 11.06,75.03 8.42,51.18 7.42,36.21 7.01,24.22 7.3,0.23" fill="none" stroke="#000000" stroke-width="1"/><polyline id="SvgjsPolyline1209" points="133.35,86.84 114.61,106.27 96.79,126.56 83.52,142.83 57.96,176.15 50.31,185.4 45.99,189.56 43.44,191.11 40.48,191.08 35.71,187.55 34,185.1 31.29,179.74 27.97,171.38 23.28,157.14 19.18,142.71 15.53,128.16 11.68,110.58 8.91,95.84 6.54,81.02 3.36,54.22 2.25,39.26 1.74,27.27 1.64,12.27 2.04,0.28" fill="none" stroke="#000000" stroke-width="1"/><polyline id="SvgjsPolyline1210" points="64.7,597.16 57.53,537.59 55.48,525.77 52.87,514.05 49.7,502.48 45.05,488.22 30.1,448.97 26.08,437.67 21.77,423.3 19.18,411.59 17.94,402.68 17.55,396.69 17.29,336.69" fill="none" stroke="#000000" stroke-width="1"/><polyline id="SvgjsPolyline1211" points="265.42,19.6 268.22,1.83" fill="none" stroke="#000000" stroke-width="1"/><polyline id="SvgjsPolyline1212" points="264.97,18.36 262.09,26.87 251.22,67.44 243.84,93.41 224.43,156.49 219.58,173.82 216.9,185.52 215.06,197.38 214.6,206.36 214.97,212.34 216.81,221.14 218.89,226.76 220.37,229.37 222.28,231.68 224.68,233.47 227.45,234.59 230.41,235.05 233.41,235.02 236.39,234.67 242.2,233.21 247.78,231.02 253.14,228.31 263.25,221.86 280.08,209.31 282.74,207.95 285.6,207.18" fill="none" stroke="#000000" stroke-width="1"/><polyline id="SvgjsPolyline1213" points="257.64,19.36 256.2,21.99 253.35,30.52 237.83,85.36 218.71,148.53 213.93,165.89 210.63,180.52 209.17,189.4 208.32,198.35 208.22,204.35 208.59,213.34 209.17,222.32 210.2,231.26 211.52,237.11 213.77,242.67 215.41,245.17 217.76,247 220.64,247.76 223.63,247.64 226.57,247.01 232.24,245.06 243.21,240.2 251.05,235.8 260.87,228.9 270.03,221.16 283.19,208.88" fill="none" stroke="#000000" stroke-width="1"/><polyline id="SvgjsPolyline1214" points="254.79,20.61 252.46,26.13 250.64,31.85 235.79,83.76 216.73,146.95 211.24,167.22 208.1,181.89 206.77,190.78 206.06,199.75 206.46,244.75 206.78,250.74 207.6,256.68 210.71,261.75 213.44,262.78 216.37,262.17 219.11,260.97 224.34,258.02 252.37,240.62 259.6,235.27 268.69,227.43 275.09,221.11 287.29,207.88" fill="none" stroke="#000000" stroke-width="1"/><polyline id="SvgjsPolyline1215" points="252.06,26.5 233.68,89.89 215.5,150.21 210.87,167.6 208.3,179.32 206.45,191.18 205.77,200.15 205.69,248.15 205.37,266.14 204.6,272.09 203.03,277.88 199.49,286.14 187.95,307.18 181.27,320.61 175.27,334.36 168.9,351.19 164.17,365.42 159.87,379.79 153.58,402.95 141.62,449.44 137.45,463.85 133.53,475.19 130.05,483.48 125.89,491.46 122.56,496.45 120.65,498.77 116.2,502.76 113.61,504.27 110.8,505.32 107.85,505.85 104.86,505.87 101.89,505.44 99,504.64 93.5,502.26 85.84,497.55 81.04,493.95 74.18,488.12 63.53,477.57 53.75,466.2 44.89,454.1 38.56,443.91 33.01,433.27 28.38,422.21 25.65,413.63 24.24,407.8 23.25,401.89 18.84,357.1" fill="none" stroke="#000000" stroke-width="1"/><polyline id="SvgjsPolyline1216" points="286.79,17.93 290.3,0.27" fill="none" stroke="#000000" stroke-width="1"/><polyline id="SvgjsPolyline1217" points="290.25,14.86 280.61,55.73 271.31,90.51 261.63,122.05 242.23,178.83 238.96,190.37 237.71,196.24 236.89,202.18 236.82,208.17 237.23,211.14 238.08,214.02 239.51,216.65 241.6,218.78 244.24,220.18 247.17,220.81 250.16,220.84 256.04,219.69 264.39,216.36 275.05,210.84" fill="none" stroke="#000000" stroke-width="1"/><polyline id="SvgjsPolyline1218" points="333.46,17.58 331.59,23.27 322.14,61.11 316.71,81.4 311.7,98.68 305.33,118.69 300.37,132.85 293.91,149.65 286.85,166.21 274.37,193.49 271.4,201.98 270.8,204.91 271.21,207.83 273.65,209.24 276.62,209.06 282.47,207.7" fill="none" stroke="#000000" stroke-width="1"/><polyline id="SvgjsPolyline1219" points="77.03,598.79 72.4,566.11 68.55,542.42 65.74,527.69 61.99,513.17 58.21,501.78 53.83,490.61 48.99,479.63 36.23,452.48 30.32,438.7 25.28,424.57 22.19,412.98 20.64,404.12 20.07,398.15 17.64,341.2" fill="none" stroke="#000000" stroke-width="1"/><polyline id="SvgjsPolyline1220" points="205.68,288.46 222.54,271.38 231.44,263.33 240.83,255.87 257.95,243.71 269.37,234 275.76,227.66 281.78,220.97 292.93,206.85" fill="none" stroke="#000000" stroke-width="1"/><polyline id="SvgjsPolyline1221" points="207.31,297.42 199.66,310.32 192.95,323.73 187.16,337.56 181.21,354.55 176.11,371.81 171.66,389.25 157.42,453.69 152.52,471.01 146.54,487.99 142.97,496.24 140.24,501.59 137.12,506.71 133.43,511.43 128.84,515.26 126.16,516.61 123.29,517.46 120.31,517.8 117.31,517.67 111.48,516.33 105.94,514.02 100.71,511.09 95.72,507.75 88.61,502.25 75.15,490.3 62.67,477.33 51.26,463.42 46.02,456.1 41.14,448.54 33.92,435.4 30.22,427.2 27.11,418.75 24.68,410.09 23.11,401.23 20.09,371.39 18.34,350.46 17.48,332.48 17.26,311.48" fill="none" stroke="#000000" stroke-width="1"/><polyline id="SvgjsPolyline1222" points="299.07,17.33 302.09,2.64" fill="none" stroke="#000000" stroke-width="1"/><polyline id="SvgjsPolyline1223" points="302.42,14.54 292.36,58.4 282.18,96.05 275.99,116.11 270.26,133.18 250.71,186.72 248.22,195.36 246.79,204.24 246.79,207.23 247.24,210.19 248.39,212.96 250.41,215.14 253.14,216.35 256.11,216.67 262.02,215.72 267.67,213.73 278.7,209 284.44,207.3 287.33,206.94" fill="none" stroke="#000000" stroke-width="1"/><polyline id="SvgjsPolyline1224" points="345.86,22.96 345.27,20.08 345.64,14.09 347.3,2.21" fill="none" stroke="#000000" stroke-width="1"/><polyline id="SvgjsPolyline1225" points="320.47,19.82 320.88,16.85 307.3,72.2 300.88,95.33 295.61,112.54 289.89,129.61 284.74,143.7 278.11,160.43 265.32,190.85 263.28,196.49 261.74,202.28 261.38,205.26 261.68,208.23 263.3,210.69 266.08,211.67 269.07,211.55 277.73,209.15" fill="none" stroke="#000000" stroke-width="1"/><polyline id="SvgjsPolyline1226" points="345.48,20.6 344.35,23.37 341.79,32 331.94,69.73 325.52,92.86 319.42,112.95 314.7,127.19 307.47,146.9 300.58,163.53 292.96,179.84 282.12,201.25 281.05,204.05 281.16,206.84" fill="none" stroke="#000000" stroke-width="1"/><polyline id="SvgjsPolyline1227" points="88.92,597.18 85.01,573.5 80.47,549.93 75.67,529.49 71.4,515.11 67.04,503.94 61.93,493.08 41.58,456.34 34.77,442.98 28.86,429.2 25.06,417.82 22.93,409.08 21.62,400.18 18.47,355.29" fill="none" stroke="#000000" stroke-width="1"/><polyline id="SvgjsPolyline1228" points="204.21,311.69 206.31,309.7 214.89,297.4 220.32,290.22 230.05,278.82 236.39,272.42 243.07,266.39 250.05,260.72 266.82,248.08 278,238.09 284.26,231.63 290.15,224.82 295.66,217.71 302.48,207.83" fill="none" stroke="#000000" stroke-width="1"/><polyline id="SvgjsPolyline1229" points="205.93,305.66 205.72,320.65 206.87,326.53 207.96,329.31 210.13,331.27 213.05,331.01 215.63,329.5 220.09,325.49 234.19,309.93 242.58,301.35 249.27,295.33 256.33,289.76 263.7,284.59 271.35,279.86 295.11,267.04 307.88,259.17 317.48,251.98 337.87,234.28 345.09,228.92 350.45,226.25 353.33,225.44 356.31,225.07 359.3,225.17 365.15,226.46 370.73,228.67 373.39,230.06 375.89,231.71 380.35,235.71 382.3,237.98 385.65,242.95 389.44,251.11 391.25,256.83 392.56,262.68 393.95,274.59 394.22,292.58" fill="none" stroke="#000000" stroke-width="1"/><polyline id="SvgjsPolyline1230" points="205.89,313.02 204.8,318.91 197.23,347.94 193.38,365.52 189.17,389.15 184.33,421.79 181.48,436.51 177.3,454.02 171.65,474.25 167.08,488.53 162.98,499.81 159.52,508.12 155.51,516.17 152.35,521.27 148.53,525.89 146.25,527.83 143.66,529.34 140.83,530.33 137.87,530.77 131.91,530.3 129,529.58 123.36,527.52 117.97,524.91 112.76,521.92 100.45,513.37 93.48,507.68 84.5,499.72 69.48,485.05 57.54,471.58 46.7,457.22 40.22,447.12 34.46,436.6 29.56,425.65 25.73,414.28 24.29,408.46 23.25,402.55 19.92,369.72 18.43,351.78" fill="none" stroke="#000000" stroke-width="1"/><polyline id="SvgjsPolyline1231" points="310.99,19.73 314.43,2.07" fill="none" stroke="#000000" stroke-width="1"/><polyline id="SvgjsPolyline1232" points="582.36,297.18 582.8,294.21 582.74,279.21 582.13,255.22 578.61,204.35 577.44,195.43 576.14,189.57 573.57,180.95 571.49,175.32 567.9,167.07 563.82,159.05 559.3,151.27 554.39,143.72 549.14,136.41 541.68,127.02 533.75,118.01 525.44,109.36 516.81,101.02 505.76,90.88 498.87,85.09 489.34,77.8 479.44,71.02 469.23,64.72 458.74,58.89 439.82,49.78 409.2,37.49 397.92,33.41 394.98,32.8 392.36,31.36 389.37,31.31 387.03,29.45 384.11,29.99 382.09,27.81 379.32,28.84 377.58,26.44 374.98,27.84 373.48,25.29 371.06,26.98 369.76,24.32 367.49,26.22 366.38,23.47 364.24,25.51 363.33,22.68 361.25,24.79 360.56,21.89 358.36,23.84 357.07,26.55 354.01,35.01 336.2,98.56 329.04,121.47 323.16,138.48 315.58,158.06 308.29,174.52 301.55,187.91 292.68,203.58" fill="none" stroke="#000000" stroke-width="1"/><polyline id="SvgjsPolyline1233" points="358.29,24.64 357.41,21.82 357.39,18.82 359.46,0.94" fill="none" stroke="#000000" stroke-width="1"/><polyline id="SvgjsPolyline1234" points="332.51,21.13 332.97,15.17 335.5,0.38" fill="none" stroke="#000000" stroke-width="1"/><polyline id="SvgjsPolyline1235" points="101.3,598.27 96.26,571.75 91.48,551.3 86.48,534.02 80.37,517.09 76.66,508.89 70.94,498.35 64.58,488.17 48.03,463.15 40.29,450.3 33.39,436.99 27.7,423.12 25.03,414.52 23.09,405.74 22.31,399.79 19.98,372.89" fill="none" stroke="#000000" stroke-width="1"/><polyline id="SvgjsPolyline1236" points="206.64,300.82 205.14,303.42 205.75,306.09 205.73,324.09 208.42,322.97 210.61,320.92 227.56,299.91 235.56,290.97 241.9,284.58 248.59,278.56 255.6,272.93 277.63,257.32 289.37,247.98 296.01,241.91 302.3,235.48 321.93,212.81 324.31,210.99 327.13,210.05 330.11,210.22 335.93,211.67 350.02,216.78 363.58,223.19 373.97,229.19 378.56,233.04 382.48,237.58 385.72,242.62 389.43,250.81" fill="none" stroke="#000000" stroke-width="1"/><polyline id="SvgjsPolyline1237" points="205.85,323.82 206.27,329.81 207.26,335.72 208.11,338.6 209.42,341.29 211.8,343.1 214.78,343.13 220.41,341.11 223.02,339.63 227.8,336.02 245.45,319.75 252.31,313.93 259.52,308.55 267.17,303.81 275.28,299.92 283.79,297 292.59,295.16 304.52,293.85 310.43,292.86 319.09,290.42 324.65,288.16 332.6,283.95 342.47,277.15 368.17,256.45 373.26,253.29 376,252.07 378.9,251.3 381.89,251.25 384.73,252.16 387.13,253.94 389,256.28 391.51,261.71 392.97,267.52 393.77,273.47 394.21,282.45 394.22,294.37" fill="none" stroke="#000000" stroke-width="1"/><polyline id="SvgjsPolyline1238" points="207.68,335.69 209.68,337.9 212.64,337.7 215.33,336.39 217.77,334.65 222.23,330.64 238.96,313.43 245.58,307.33 254.99,299.9 262.54,295 267.79,292.09 275.95,288.31 284.38,285.17 304.34,278.65 315.37,273.93 320.63,271.05 325.68,267.82 352.67,248.83 357.78,245.68 363.13,242.97 368.81,241.06 371.77,240.61 374.76,240.64 377.7,241.24 380.44,242.43 382.9,244.14 385.03,246.25 386.84,248.64 389.63,253.94 392.29,262.53" fill="none" stroke="#000000" stroke-width="1"/><polyline id="SvgjsPolyline1239" points="207.38,329.73 210.18,328.8 214.71,324.88 234.4,302.26 240.75,295.88 247.46,289.89 254.54,284.33 264.29,277.33 286.87,262.53 296.61,255.53 303.57,249.82 310.21,243.74 331.31,222.43 336.06,218.78 338.73,217.42 341.62,216.63 344.61,216.51 350.48,217.7 356.1,219.8 364.22,223.66 374.59,229.69 379.11,233.62 382.94,238.24 386.1,243.33 388.64,248.76 390.62,254.42 392.1,260.24 393.13,266.15 393.98,275.1 394.2,293.09" fill="none" stroke="#000000" stroke-width="1"/><polyline id="SvgjsPolyline1240" points="582.73,292.31 582.71,274.31 582.19,256.32 580.9,235.36 578.09,199.47 576.4,190.64 573.91,181.99 570.77,173.56 565.73,162.67 561.4,154.79 556.66,147.13 546.14,132.54 540.43,125.58 532.42,116.65 517.51,101.86 508.62,93.8 501.72,88.03 494.48,82.67 489.45,79.4 484.22,76.47 478.72,74.08 472.9,72.66 469.91,72.59 466.96,73.11 464.19,74.25 461.69,75.9 459.49,77.94 455.76,82.63 452.63,87.75 448.65,95.81 442.11,112.58 435.85,132.62 430.64,152.96 428.15,164.7 419.86,208.93 416.62,223.58 412.96,238.12 409.64,249.65 405.92,261.06 401.83,272.34 395.09,289.03 394.43,291.92" fill="none" stroke="#000000" stroke-width="1"/><polyline id="SvgjsPolyline1241" points="205.79,307.54 205.9,325.54 207.09,337.47 208.28,343.35 209.95,349.11 212.16,354.69 214.99,359.97 218.54,364.81 220.61,366.98 222.88,368.94 227.91,372.2 238.43,377.97 246.56,381.82 254.94,385.08 257.94,385.2 260.78,384.25 265.71,380.86 270.09,376.77 286.91,359.65 298.19,349.77 307.81,342.6 332.66,325.79 342.35,318.71 349.35,313.06 355.99,306.99 362.29,300.56 378.01,282.44 384.19,275.89 386.44,273.92 389.04,272.45 391.81,273 393.21,275.57 394.09,281.49 394.17,293.44" fill="none" stroke="#000000" stroke-width="1"/><polyline id="SvgjsPolyline1242" points="205.94,304.88 204.74,397.86 204.32,403.85 203.18,412.78 199.08,433.37 193.16,456.62 185.64,482.56 179.12,502.51 172.6,519.29 167.13,529.96 163.64,534.83 161.57,537 159.18,538.81 156.46,540.05 153.53,540.66 150.53,540.71 144.63,539.69 138.94,537.77 133.45,535.36 125.49,531.17 117.8,526.5 110.35,521.45 96.16,510.38 84.99,500.38 76.3,492.1 61.91,476.81 56.13,469.91 48.87,460.36 43.8,452.92 39.1,445.25 33.49,434.65 28.77,423.62 25.16,412.18 23.36,403.36 20,370.54 18.28,349.61 17.45,331.63 17.26,307.63" fill="none" stroke="#000000" stroke-width="1"/><polyline id="SvgjsPolyline1243" points="599.53,486.46 586.39,421.79 584.57,409.93 583.72,397.96 584.51,364.97 585.25,353 586.49,341.06 589.37,323.3 599.85,270.32" fill="none" stroke="#000000" stroke-width="1"/><polyline id="SvgjsPolyline1244" points="581.67,257.7 579.82,259.84 578.64,262.59 576.07,271.21 563.27,326.76 556.42,352.87 550.27,372.95 543.21,392.72 533.86,414.82 528.63,425.62 523.02,436.23 517.04,446.63 510.69,456.82 496.96,476.5 487.73,488.31 480,497.5 471.99,506.43 461.58,517.23 450.73,527.58 439.41,537.43 429.94,544.79 422.54,549.91 412.28,556.13 404.31,560.31 396.14,564.09 384.99,568.52 373.61,572.3 362.03,575.46 350.31,578.02 341.71,579.25" fill="none" stroke="#000000" stroke-width="1"/><polyline id="SvgjsPolyline1245" points="599.91,492.04 595.91,471.43 586.03,424.46 583.26,406.68 582.75,397.7 582.71,322.7 582.81,319.7 583.69,313.76 589.64,284.36 593.79,260.72 597.35,236.99 599.86,216.14" fill="none" stroke="#000000" stroke-width="1"/><polyline id="SvgjsPolyline1246" points="582.73,293.1 582.59,269.1 581.77,254.12 580.73,245.18 579.62,239.29 577.78,236.99 575.62,238.97 572.89,244.3 568.27,258.56 564.51,273.08 552.1,325.64 546.89,345.98 539.48,371.94 531.01,397.58 521.2,422.73 512.45,441.82 506.97,452.49 501.11,462.96 489.91,480.72 482.96,490.5 475.6,499.98 465.88,511.4 457.68,520.16 449.11,528.56 440.17,536.56 430.8,544.05 423.45,549.25 415.84,554.06 405.31,559.81 394.42,564.83 386.05,568.13 374.68,571.98 366.03,574.45 351.41,577.81 342.65,579.17" fill="none" stroke="#000000" stroke-width="1"/><polyline id="SvgjsPolyline1247" points="582.74,291.82 582.46,264.83 581.74,252.85 580.83,243.9 579.48,235 577.45,226.23 576.47,223.4 573.85,222.23 571.53,224.06 569.81,226.51 565.81,234.56 562.79,243.04 556.4,266.17 538.4,338.98 528.65,373.63 521.4,396.51 515.47,413.5 507.9,433.09 500.76,449.61 492.9,465.8 484.2,481.56 476.17,494.22 467.37,506.37 457.86,517.97 445.48,531.03 434.29,541.01 424.72,548.25" fill="none" stroke="#000000" stroke-width="1"/><polyline id="SvgjsPolyline1248" points="581.57,250.41 579.31,232.56 577.54,223.74 575.99,217.94 573.89,212.32 572.36,209.75 569.47,209.44 564.68,212.98 562.87,215.36 558.88,223.42 554.87,234.72 549.08,254.91 532.81,318.87 522.6,356.51 511.37,393.86 504.8,413.8 497.77,433.59 487.85,458.7 477.87,480.52 469.21,496.3 464.44,503.93 457.62,513.8 452.14,520.94 446.35,527.82 435.88,538.56 429.09,544.46 424.34,548.13 416.9,553.2 411.76,556.29 403.82,560.52 395.65,564.29 378.82,570.66 361.51,575.59 352.73,577.55 343.9,579.07" fill="none" stroke="#000000" stroke-width="1"/><polyline id="SvgjsPolyline1249" points="583.37,284.07 587.35,251.32 590.38,218.46 590.81,209.47 590.29,194.48 588.35,179.61 585.39,164.91 581.77,150.35 570.11,106.89 566.75,92.27 563.94,77.54 561.74,62.7 560.44,50.78 557.29,2.88" fill="none" stroke="#000000" stroke-width="1"/><polyline id="SvgjsPolyline1250" points="579.79,234.82 577.7,223 575.61,214.25 572.85,205.69 570.28,200.27 568.45,197.9 562.7,196.57 559.95,197.69 557.77,199.74 555.99,202.15 553.08,207.39 549.58,215.68 545.68,227.03 538.98,250.07 521.28,316.76 509.04,360.06 495.04,405.98 480.88,448.69 471.5,474 465.55,487.77 460.24,498.53 455.93,506.43 446.42,521.71 437.39,533.68 429.26,542.5 420.17,550.33 415.28,553.8 407.58,558.46 394.07,564.96 377.19,571.19 359.85,575.99 348.1,578.43 342.33,579.2" fill="none" stroke="#000000" stroke-width="1"/><polyline id="SvgjsPolyline1251" points="581.49,249.17 579.77,234.27 577.18,219.5 573.53,204.95 569.53,193.64 566.6,188.42 564.64,186.15 559.6,182.94 556.67,182.43 553.84,183.34 551.47,185.16 549.49,187.41 544.87,195.12 541.26,203.36 536.24,217.49 528.5,243.36 510.02,309.84 496.46,355.88 463.28,464.95 459.41,476.3 453.98,490.29 447.92,504.01 441.2,517.42 433.64,530.37 426.75,540.19 420.9,547.02 414.3,553.14 406.96,558.33 399.06,562.64" fill="none" stroke="#000000" stroke-width="1"/><polyline id="SvgjsPolyline1252" points="579.6,231.67 577.3,216.85 573.3,196.24 571.54,190.51 567.88,182.29 564.71,177.2 562.86,174.84 560.79,172.67 558.45,170.81 553.05,168.21 550.12,167.64 547.17,168.08 544.53,169.49 542.28,171.46 540.32,173.74 535.6,181.38 530.7,192.33 524.66,209.29 518.46,229.35 496.51,304.19 468.08,395.89 461.52,418.97 448.26,468.22 444.59,479.64 439.56,493.77 434.07,507.73 428.08,521.48 422.82,532.26 416.9,542.7 411.79,550.1 407.89,554.66 403.49,558.73 395.98,563.67" fill="none" stroke="#000000" stroke-width="1"/><polyline id="SvgjsPolyline1253" points="580.53,237.35 578.01,216.5 574.95,195.73 573.41,189.93 571.44,184.26 569.07,178.75 566.31,173.43 563.14,168.34 559.51,163.56 555.31,159.29 552.94,157.45 550.34,155.96 544.64,154.09 541.67,153.81 538.72,154.31 536.01,155.57 533.64,157.41 529.75,161.97 525.15,169.69 519.11,183.42 513.11,200.38 486.71,286.42 462.97,357.57 455.77,380.46 447.75,409.36 438.26,450.28 434.43,464.78 428.31,484.86 420.5,507.56 410.69,532.71 405.74,543.64 401.55,551.6 398.34,556.67 394.58,561.34 390.07,565.28 384.85,568.23" fill="none" stroke="#000000" stroke-width="1"/><polyline id="SvgjsPolyline1254" points="582.87,266.13 583.77,209.13 583.35,200.15 582.15,191.23 579.64,179.5 575.42,165.11 571.47,153.78 555.7,111.63 551.13,97.35 548.02,85.76 545.45,74.04 543.43,62.21 536.45,2.62" fill="none" stroke="#000000" stroke-width="1"/><polyline id="SvgjsPolyline1255" points="582.52,296.72 582.75,293.73 582.63,269.73 582.03,254.74 581.19,242.77 576.99,200.98 575.29,192.15 572.68,183.54 569.3,175.2 563.7,164.6 556.84,154.76 550.74,148.15 546.05,144.42 543.46,142.91 540.68,141.79 534.79,140.69 531.8,140.75 528.9,141.49 526.23,142.84 523.85,144.68 521.77,146.83 518.21,151.65 515.18,156.83 512.52,162.21 505.8,178.9 499.14,198.82 485.06,244.7 475.86,273.26 465.98,301.58 448.49,349.49 441.01,372.29 436.89,386.72 433.27,401.27 425.56,439.5 421.3,456.99 414.69,480.06 404.61,511.48 394.64,539.77 387.71,556.38 384.9,561.68 381.46,566.59 379.35,568.71 376.92,570.46 374.24,571.8" fill="none" stroke="#000000" stroke-width="1"/><polyline id="SvgjsPolyline1256" points="581.86,251.1 577.89,203.27 577.1,197.32 575.86,191.45 573.33,182.82 570.08,174.43 566.21,166.3 560.16,155.94 553.15,146.21 547.19,139.47 540.47,133.5 535.41,130.28 532.66,129.08 529.76,128.33 523.78,128 520.82,128.43 518,129.45 515.42,130.97 513.12,132.89 511.06,135.07 507.52,139.91 503.12,147.76 498.28,158.73 490.28,181.36 472.61,238.7 464.11,264.32 454.8,289.67 436.93,334.21 429.63,353.9 425.12,368.21 421.36,382.72 418.32,397.41 414.56,421.11 412.31,432.9 407.36,453.31 401.64,473.51 384.78,527.96 375.23,556.4 370.51,567.42 368.98,570 367.11,572.34 364.74,574.16" fill="none" stroke="#000000" stroke-width="1"/><polyline id="SvgjsPolyline1257" points="581.9,246.12 579.74,201.17 578.36,192.28 576.23,183.54 572.47,172.15 567.89,161.06 561.35,147.56 547.19,121.11 541.8,110.39 535.66,96.71 531.49,85.46 527.41,71.03 522.95,50.51 518.67,26.9 514.49,0.22" fill="none" stroke="#000000" stroke-width="1"/><polyline id="SvgjsPolyline1258" points="582.05,252.9 578.73,202.01 576.68,190.2 573.25,178.7 567.5,164.86 560.5,151.59 550.91,136.37 533.57,111.88 526.91,101.9 522.36,94.14 517.1,83.36 510.41,66.65 504.96,49.5 499.84,29.14 494.57,2.66" fill="none" stroke="#000000" stroke-width="1"/><polyline id="SvgjsPolyline1259" points="578.46,201.91 576.35,190.1 572.84,178.63 566.96,164.84 559.76,151.69 553.23,141.62 544.31,129.57 534.74,118.01 516.93,97.72 509.51,88.3 501.01,75.94 493.63,62.88 487.46,49.22 482.53,35.06 478.56,20.6 474.13,0.07" fill="none" stroke="#000000" stroke-width="1"/><polyline id="SvgjsPolyline1260" points="547.66,134.36 538.17,122.75 528.04,111.69 489.84,73.52 483.92,66.75 478.57,59.51 470.99,46.58 466.19,35.58 461.59,21.31 456.9,0.85" fill="none" stroke="#000000" stroke-width="1"/><polyline id="SvgjsPolyline1261" points="581.38,242.38 578.23,200.5 577.27,194.58 575.12,185.84 571.17,174.52 566.21,163.6 558.84,150.54 552.17,140.56 541.12,126.36 529.03,113.03 520.51,104.58 509.54,94.35 498.09,84.67 485.92,75.9 478.25,71.21 472.93,68.43 467.4,66.11 464.53,65.24 461.58,64.68 458.59,64.59 455.64,65.13 452.91,66.35 448.08,69.91 445.98,72.04 442.4,76.86 438.06,84.73 433.28,95.74 429.14,107 424.5,121.26 419.47,138.55 414.28,158.89 410.05,179.46 402.99,232.99 395.09,277.29 394.43,283.25 394.27,289.24" fill="none" stroke="#000000" stroke-width="1"/><polyline id="SvgjsPolyline1262" points="523.56,107.43 510.53,95.01 501.6,87 471.25,62.52 464.81,56.23 460.97,51.63 457.58,46.68 454.55,41.5 451.85,36.14 449.55,30.6 447.59,24.93 445.15,16.27 442.04,1.6" fill="none" stroke="#000000" stroke-width="1"/><polyline id="SvgjsPolyline1263" points="506.63,91.66 492.66,80.31 477.81,70.14 470.08,65.55 462.1,61.39 456.6,58.99 450.87,57.22 447.9,56.82 444.91,57.03 442.1,58.05 439.65,59.77 435.42,64.02 433.56,66.37 430.37,71.45 426.39,79.52 421.9,90.65 417.91,101.96 412.45,119.11 406.57,139.27 401.18,159.57 397.78,174.18 395.52,185.96 394.28,194.88 393.66,203.85 394.23,293.85" fill="none" stroke="#000000" stroke-width="1"/><polyline id="SvgjsPolyline1264" points="471.94,65.93 459.27,57.9 451.95,52.68 445.45,46.47 441.9,41.64 437.67,33.7 434.39,25.33 431.33,13.73 429.16,1.93" fill="none" stroke="#000000" stroke-width="1"/><polyline id="SvgjsPolyline1265" points="445.16,52.55 439.53,50.47 436.63,49.73 433.64,49.47 430.73,50.18 428.21,51.79 426.08,53.9 422.39,58.63 417.92,66.43 412.13,80.26 403.51,105.84 392.35,143.21 384.48,172.16 381.16,186.78 379.68,195.66 378.95,204.63 379.17,210.62 380.22,216.52 385.92,233.59 389.34,245.09 391.41,253.85 392.92,262.72" fill="none" stroke="#000000" stroke-width="1"/><polyline id="SvgjsPolyline1266" points="496.03,82.83 483.91,73.99 471.27,65.91 458.2,58.56 436.8,47.7 431.75,44.47 429.48,42.51 427.48,40.28 424.34,35.18 421.11,26.78 419.5,21 418.28,15.13 416.18,0.28" fill="none" stroke="#000000" stroke-width="1"/><polyline id="SvgjsPolyline1267" points="581.35,241.84 578.16,199.96 576.52,191.12 574.07,182.46 572.07,176.81 568.58,168.51 561.66,155.21 553.59,142.57 544.6,130.57 532.8,116.98 524.44,108.37 515.79,100.06 500.11,86.09 485.74,75.25 478.26,70.25 468.01,64.01 449.45,54.21 438.53,49.22 427.43,44.68 421.76,42.73 418.76,42.61 416.05,43.86 413.83,45.87 411.98,48.23 408.78,53.31 404.83,61.38 399.5,75.4 390.32,103.96 369.53,172.89 364.91,190.29 362.9,202.11 362.82,208.1 363.22,211.08 364.01,213.97 365.22,216.7 368.72,221.56 377.39,229.85 381.23,234.45 385.95,242.11 389.47,250.38 391.91,259.04 393.38,267.91 394.07,276.89 394.24,288.88" fill="none" stroke="#000000" stroke-width="1"/><polyline id="SvgjsPolyline1268" points="499.2,85.35 492.09,79.83 482.29,72.9 472.17,66.46 464.38,61.95 445.67,52.42 434.69,47.57 415.25,39.66 412.74,38.01 410.91,35.64 409.71,32.89 408.16,27.1 406.28,15.26 405.04,0.31" fill="none" stroke="#000000" stroke-width="1"/><polyline id="SvgjsPolyline1269" points="477.68,69.88 462.18,60.74 446.11,52.63 432.37,46.61 407.27,36.67 404.28,36.71 401.81,38.4 399.89,40.7 398.3,43.24 394.25,51.28 388,68.15 366.73,136.93 349.88,188.24 346.75,199.82 346.06,205.77 346.35,208.75 347.41,211.54 349.24,213.91 351.53,215.83 364.48,223.4" fill="none" stroke="#000000" stroke-width="1"/><polyline id="SvgjsPolyline1270" points="421.75,42.4 407.77,36.96 396.4,33.16 394.52,30.84 393.6,27.99 392.99,22.03 393.12,1.03" fill="none" stroke="#000000" stroke-width="1"/><polyline id="SvgjsPolyline1271" points="404.17,35.66 398.54,33.61 395.6,33.03 393.06,31.45 390.12,31.91 388.02,34.04 385.05,39.24 381.53,47.53 377.61,58.87 360.27,116.3 351.97,142 342.9,167.43 330.97,198.19 329.31,203.95 329.26,206.93 330.94,209.3 333.61,210.63 347.68,215.81 355.94,219.4 366.63,224.84 374.35,229.46 376.7,231.32 380.91,235.59 382.75,237.95 385.94,243.03" fill="none" stroke="#000000" stroke-width="1"/><polyline id="SvgjsPolyline1272" points="393.49,32.39 390.93,30.84 387.95,30.95 385.7,29 382.81,29.68 380.87,27.43 378.14,28.57 376.46,26.13 373.94,27.67 372.06,25.4 370.04,27.58 368.63,30.23 366.42,35.8 362.68,47.21 350.31,90.47 343.39,113.45 332.84,144.72 326.37,161.51 319.21,178.03 312.59,191.49 305.32,204.6" fill="none" stroke="#000000" stroke-width="1"/><polyline id="SvgjsPolyline1273" points="370.47,26.09 369.74,23.2 369.6,20.2 369.9,14.21 371.17,2.28" fill="none" stroke="#000000" stroke-width="1"/><polyline id="SvgjsPolyline1274" points="113.69,599.17 109.49,578.6 105.14,561.13 100.71,546.8 95.36,532.8 88.94,519.24 81.43,506.27 74.54,496.45 58.12,475.01 49.35,462.84 41.24,450.22 35.44,439.72 29.29,426.05 25.49,414.67 23.02,402.94 21.26,385.02" fill="none" stroke="#000000" stroke-width="1"/><polyline id="SvgjsPolyline1275" points="206.96,335.65 209.24,344.35 210.46,347.09 212.05,349.63 214.16,351.76 216.84,353.08 219.81,353.4 222.77,352.92 228.43,350.94 233.73,348.13 238.69,344.76 255.26,331.87 264.96,324.81 272.54,319.96 277.87,317.21 283.41,314.89 289.11,313.03 294.94,311.6 309.67,308.82 318.36,306.49 326.76,303.25 334.76,299.14 342.32,294.27 349.45,288.78 358.41,280.81 373.57,266.27 378.27,262.55 380.84,261.01 383.64,259.96 386.61,259.94 389.19,261.39 390.98,263.79 392.16,266.54 392.95,269.43 393.83,275.36" fill="none" stroke="#000000" stroke-width="1"/><polyline id="SvgjsPolyline1276" points="286.01,393.6 300.61,374.55 306.54,367.78 312.82,361.34 319.45,355.25 326.37,349.5 343.24,337.01 350.27,331.39 357,325.41 363.39,319.07 373.25,307.78 387.65,288.58 391.64,284.12" fill="none" stroke="#000000" stroke-width="1"/><polyline id="SvgjsPolyline1277" points="578.98,212.67 577.96,200.71 576.36,191.86 573.92,183.2 570.79,174.77 567.07,166.57 561.3,156.06 554.7,146.04 549.23,138.89 543.29,132.13 536.84,125.86 529.68,120.42 524.36,117.66 521.5,116.77 518.53,116.36 512.55,116.78 509.66,117.55 506.96,118.85 504.5,120.57 500.31,124.85 496.86,129.75 492.56,137.65 487.81,148.67 480.91,168.5 462.74,228.82 452.27,260.11 441.37,288.06 420.9,334.77 414.72,351.67 411.46,363.21 408.93,374.94 406.62,389.76 403.47,416.57 401.21,428.36 398.46,440.04 390.39,468.93 366.13,549.35 361.54,563.63 359.43,569.24 356.66,574.55 354.51,576.6 351.78,577.51 346.18,578.53" fill="none" stroke="#000000" stroke-width="1"/><polyline id="SvgjsPolyline1278" points="559.85,152.76 554.93,145.22 549.63,137.95 543.97,130.96 537.95,124.27 531.55,117.94 524.69,112.12 519.78,108.67 514.5,105.84 511.68,104.82 508.74,104.21 505.75,104.14 499.86,105.24 497.07,106.33 494.5,107.87 490.07,111.9 486.45,116.68 482.02,124.51 477.25,135.51 471.38,152.53 451.54,221.74 446.16,238.91 441.28,253.1 435.96,267.12 430.16,280.95 423.86,294.57 409.26,324.16 405.75,332.44 402.89,340.97 400.26,352.68 398.71,364.57 397.79,376.54 396.75,400.51 396.21,406.49 394.36,418.34 391.82,430.07 386.41,450.36 368.25,510.68 352.36,565.42 349.38,573.91 348.01,576.58 345.84,578.5" fill="none" stroke="#000000" stroke-width="1"/><polyline id="SvgjsPolyline1279" points="542.41,128.34 530.2,115.12 523.66,108.94 516.78,103.14 511.96,99.56 506.89,96.36 501.43,93.89 498.53,93.13 495.55,92.83 492.57,93.11 486.84,94.86 484.17,96.21 481.73,97.97 479.55,100.02 475.79,104.69 472.63,109.79 468.64,117.85 464.26,129.02 460.6,140.45 456.59,154.9 440.82,215.89 435.75,233.16 430.08,250.25 424.77,264.27 418.83,278.05 412.2,291.5 399.25,315.19 396.95,320.72 396.12,323.61 395.16,329.52 394.64,338.51 394.22,398.5 393.41,407.47 391.43,419.3 388.04,433.91 383.22,451.25 364.99,511.56 349.33,566.36 346.41,574.87 345.02,577.52" fill="none" stroke="#000000" stroke-width="1"/><polyline id="SvgjsPolyline1280" points="526.45,110.8 515.45,100.61 506.18,93 498.71,87.99 493.35,85.29 490.53,84.27 487.61,83.57 484.63,83.32 481.64,83.61 478.78,84.5 473.51,87.35 471.12,89.16 468.99,91.27 465.33,96.02 460.85,103.82 457.11,112 452.87,123.23 449.22,134.66 444.59,152.05 436.14,190.12 430.58,213.47 425.08,233.73 420.59,248.04 415.49,262.15 409.65,275.96 402.94,289.37 395.31,302.29" fill="none" stroke="#000000" stroke-width="1"/><polyline id="SvgjsPolyline1281" points="205.75,315.77 206.19,330.76 207.21,339.7 208.25,345.61 211.85,360.17 218.98,383.08 219.64,386.01 220.34,394.96 220,400.95 219.25,406.91 216.35,421.62 210.37,444.86 201.24,476.57 192.3,505.21 186.28,522.17 181.55,533.19 177.08,540.99 173.11,545.47 170.63,547.16 167.82,548.16 164.83,548.43 158.91,547.58 153.19,545.78 144.89,542.3 131.58,535.39 121.31,529.18 111.39,522.44 104.18,517.05 94.93,509.41 81.63,497.28 73.07,488.88 64.84,480.14 57.03,471.03 49.71,461.53 44.59,454.13" fill="none" stroke="#000000" stroke-width="1"/><polyline id="SvgjsPolyline1282" points="205.77,308.19 205.82,323.19 206.78,335.15 208.63,343.95 210.59,349.62 211.85,352.34 215.12,357.36 217.21,359.51 219.64,361.26 222.38,362.48 225.31,363.09 228.31,363.14 231.28,362.73 239.89,360.17 247.86,356.01 255.29,350.93 277.06,334.97 287.32,328.75 298.24,323.79 320.67,315.26 328.81,311.43 336.63,306.99 344.08,301.95 353.39,294.38 362.07,286.1 376.65,270.99 381.18,267.06 383.7,265.43 386.52,264.44 389.4,264.96 391.43,267.11 392.62,269.86 393.77,275.73" fill="none" stroke="#000000" stroke-width="1"/><polyline id="SvgjsPolyline1283" points="205.98,327.13 206.86,336.09 207.92,341.99 209.43,347.8 211.41,353.46 213.93,358.9 217.02,364.04 220.72,368.76 227.14,375.06 229.03,377.39 230.59,379.95 231.74,382.71 232.48,385.62 233.23,391.57 233.33,394.57 232.91,400.55 230.74,412.35 226.19,429.76 217.74,458.54 203.77,504.47 196.13,527.22 192.85,535.59 188.98,543.72 185.73,548.75 183.71,550.97 181.31,552.76 178.53,553.84 175.55,554.1 169.65,553.09 158.36,549.03 142.09,541.34" fill="none" stroke="#000000" stroke-width="1"/><polyline id="SvgjsPolyline1284" points="213.74,357.54 217.07,362.53 221.23,366.84 223.64,368.62 228.99,371.32 234.73,373.04 237.71,373.3 240.7,373.05 246.38,371.18 251.68,368.37 256.67,365.05 279.82,345.97 292.02,337.25 302.43,331.29 329.17,317.71 336.86,313.03 344.24,307.88 351.28,302.27 357.93,296.21 364.25,289.81 378.45,274.34 382.84,270.25 385.31,268.54 388.11,267.56 390.86,268.48 392.47,270.97 393.32,273.83" fill="none" stroke="#000000" stroke-width="1"/><polyline id="SvgjsPolyline1285" points="218.73,365.05 223.11,369.15 228.15,372.39 241.17,379.85 243.65,381.53 245.77,383.64 247.13,386.31 247.72,389.25 247.79,392.24 247.29,398.22 245.52,407.04 242.23,418.58 227.76,464.34 212.82,513.11 206.3,533.07 202.03,544.28 198.02,552.33 196.34,554.81 194.32,557.02 191.84,558.7 188.96,559.48 185.97,559.41 183.03,558.82 177.32,557 166.13,552.67 152.42,546.58 141.69,541.21 131.2,535.38 120.99,529.08 106.28,518.71 92.43,507.22 81.39,497.06 72.84,488.65 66.64,482.12 58.73,473.1" fill="none" stroke="#000000" stroke-width="1"/><polyline id="SvgjsPolyline1286" points="205.77,306.47 206,327.47 207.43,339.38 208.76,345.22 210.6,350.94 213,356.43 216.05,361.59 219.85,366.23 222.05,368.27 224.45,370.07 232.19,374.65 240.16,378.83 248.33,382.6 259.48,387.04 262.45,387.42 263.77,390.07 263.71,393.06 262.63,398.96 260.98,404.73 248.84,438.62 242.07,458.5 233.89,484.23 218.16,535.89 214.27,547.23 210.81,555.54 207.77,560.7 205.73,562.89 203.12,564.34 200.16,564.68 197.19,564.27 191.44,562.6 177.41,557.28" fill="none" stroke="#000000" stroke-width="1"/><polyline id="SvgjsPolyline1287" points="599.83,428.23 597.61,410.37 596.82,395.4 597.25,383.41 599.85,362.57" fill="none" stroke="#000000" stroke-width="1"/><polyline id="SvgjsPolyline1288" points="599.47,452.23 595.75,431.56 593.58,416.72 592.5,404.77 592.29,395.78 592.76,386.79 594.72,368.9 599.74,336.29" fill="none" stroke="#000000" stroke-width="1"/><polyline id="SvgjsPolyline1289" points="583.26,301.08 578.95,318.56 574.92,333.01 569.47,350.16 564.44,364.29 558.88,378.23 552.78,391.93 546.13,405.37 538.97,418.55 531.3,431.44 523.16,444.04 512.82,458.77 503.75,470.72 494.3,482.37 482.49,495.95 470.18,509.08 459.52,519.63" fill="none" stroke="#000000" stroke-width="1"/><polyline id="SvgjsPolyline1290" points="502.49,597.99 499.76,583.25 497.18,571.53 494.03,559.95 491.07,551.45 487.24,543.32 483.92,538.33 479.7,534.08 477.2,532.43 474.48,531.18 471.59,530.39 468.61,530.03 462.62,530.11 456.74,531.28 451.13,533.4 445.76,536.06 422.76,550.2" fill="none" stroke="#000000" stroke-width="1"/><polyline id="SvgjsPolyline1291" points="440.06,597.61 437.52,585.88 435.07,577.23 431.7,568.89 428.5,563.83 424.33,559.53 421.8,557.93 418.91,557.15 415.92,557.2 412.98,557.76 404.49,560.72" fill="none" stroke="#000000" stroke-width="1"/><polyline id="SvgjsPolyline1292" points="407.09,597.55 405.92,585.61 404.57,576.71 403.09,570.9 401.76,568.23 399.48,566.33 396.57,565.76 393.59,566.08 390.68,566.8" fill="none" stroke="#000000" stroke-width="1"/><polyline id="SvgjsPolyline1293" points="388.99,597.77 389.39,582.78 388.8,576.81 388.09,573.91 386.5,571.4 383.78,570.31 380.8,570.5 354.64,577.15" fill="none" stroke="#000000" stroke-width="1"/><polyline id="SvgjsPolyline1294" points="376.18,598.75 377.11,586.79 376.72,577.81 375.72,575.01 373.3,573.45 370.34,573.56" fill="none" stroke="#000000" stroke-width="1"/><polyline id="SvgjsPolyline1295" points="363.76,599.05 364.74,590.11 365.06,581.12 364.57,578.17 362.61,576.15" fill="none" stroke="#000000" stroke-width="1"/><polyline id="SvgjsPolyline1296" points="351.6,598.7 353.27,583.8 353.18,580.8 351.8,578.42" fill="none" stroke="#000000" stroke-width="1"/><polyline id="SvgjsPolyline1297" points="597.62,598.49 597.87,586.49 597.69,574.49 596.27,550.54 593.18,523.72 589.25,500.05 582.97,470.71 579.2,456.2 575.82,444.68 572,433.31 568.68,424.94 566.02,419.57 564.41,417.04 562.43,414.79 559.77,413.49 556.82,413.82 554.14,415.15 551.71,416.91 547.31,420.98 537.38,432.22 516.58,457.84 499.15,478.46 480.99,498.43 466.26,513.41" fill="none" stroke="#000000" stroke-width="1"/><polyline id="SvgjsPolyline1298" points="599.81,533.56 596.89,512.76 593.8,495.03 590.22,477.39 585.48,456.93 580.2,436.61 572.08,407.72 570.04,402.09 568.52,399.51 566.09,397.86 563.17,398.28 560.63,399.87 558.39,401.86 554.34,406.28 546.96,415.74 525.64,444.75 514.64,459 499.42,477.55 485.52,493.29 473.16,506.38 460.35,519.02 447.03,531.13 435.47,540.68" fill="none" stroke="#000000" stroke-width="1"/><polyline id="SvgjsPolyline1299" points="599.58,508.42 595.89,487.75 592.28,470.11 579.67,414.53 576.27,390.78 575.44,387.9 573.63,385.56 567.85,385.83 565.4,387.55 563.29,389.68 559.53,394.35 530.79,436.47 520.2,451.03 509.2,465.27 489.9,488.24 479.8,499.33 467.27,512.25 456.45,522.64 445.27,532.63 433.63,542.09 423.86,549.06 413.65,555.36 403.03,560.94 392.06,565.8 380.82,569.99" fill="none" stroke="#000000" stroke-width="1"/><polyline id="SvgjsPolyline1300" points="599.63,174.49 595.5,150.85 584.53,97.98 580.2,71.33 578.45,56.43 577.07,38.49 576.18,2.5" fill="none" stroke="#000000" stroke-width="1"/><polyline id="SvgjsPolyline1301" points="126.08,599.93 122.33,582.32 117.65,564.94 112.71,550.79 106.52,537.13 98.98,524.17 90.37,511.89 82.9,502.5 65.23,482.09 55.77,470.45 46.95,458.32 40.51,448.19 33.43,434.97 29.81,426.74 27.71,421.12 24.41,409.59 23.3,403.69 22.61,397.73" fill="none" stroke="#000000" stroke-width="1"/><polyline id="SvgjsPolyline1302" points="281.96,391.17 281.33,394.08 280.23,396.87 268.14,424.32 257.35,452.31 246.03,486.48 230.69,538.26 226.17,552.56 224.12,558.2 221.66,563.67 220.08,566.22 218,568.35 215.22,569.39 212.24,569.24 206.42,567.8 197.87,565.02 186.59,560.9 167.09,553.13 147.98,544.43 132.12,535.91 116.88,526.34 102.39,515.67 90.99,505.92" fill="none" stroke="#000000" stroke-width="1"/><polyline id="SvgjsPolyline1303" points="299.93,394.08 292.38,407.04 285.54,420.39 279.36,434.05 273.7,447.95 266.5,467.67 259.07,490.49 238.14,562.51 236,568.11 234.63,570.78 232.7,573.04 229.91,573.85 226.96,573.5 218.22,571.35 198.17,565.12 172.94,555.52 156.39,548.45 140.26,540.45 127.24,533.01 114.67,524.82 102.65,515.87 91.23,506.14 73.81,489.64 61.57,476.44 50.34,462.39 45.17,455.01 40.36,447.41 33.27,434.2 29.67,425.95 27.59,420.32 24.35,408.77" fill="none" stroke="#000000" stroke-width="1"/><polyline id="SvgjsPolyline1304" points="299.55,396.54 304.61,389.09 311.81,379.49 319.6,370.37 325.88,363.92 337.1,353.98 353.94,341.43 360.92,335.76 367.6,329.72 373.93,323.33 383.63,311.9 393.92,297.14" fill="none" stroke="#000000" stroke-width="1"/><polyline id="SvgjsPolyline1305" points="307.64,395.15 317.27,383.66 323.34,377.01 329.76,370.7 338.88,362.91 346.13,357.59 363.64,346 380.46,333.42 385.42,330.04 388.05,328.61 390.93,328.38 392.57,330.76 393.17,333.69 393.77,342.67 393.99,354.67 394.1,396.67 393.44,405.64 391.59,417.49 388.29,432.12 384.36,446.6 364.45,512.67 349.66,564.6 346.9,573.16 345.75,575.93 344.09,578.4" fill="none" stroke="#000000" stroke-width="1"/><polyline id="SvgjsPolyline1306" points="170.53,599.42 167.56,584.72 164,573.27 160.19,565.12 157.11,559.97 153.59,555.12 149.51,550.72 142.68,544.87 110.8,522.42" fill="none" stroke="#000000" stroke-width="1"/><polyline id="SvgjsPolyline1307" points="187.18,598.08 185.51,586.2 183.52,577.42 180.43,568.98 179.12,566.28 175.68,561.38 171.22,557.38 166.19,554.12 139.61,540.22 124.09,531.1 111.66,522.71 99.78,513.55 81.9,497.55 67.12,482.64 55.39,468.99 49.93,461.84 44.8,454.45 38.51,444.23 32.98,433.58 28.36,422.51 24.87,411.03 23.65,405.16 22.87,399.21 19.61,366.38 17.87,342.44" fill="none" stroke="#000000" stroke-width="1"/><polyline id="SvgjsPolyline1308" points="490.66,599.99 487.8,585.26 485.1,573.57 482.68,564.9 479.75,556.4 475.99,548.23 472.76,543.18 468.65,538.82 466.2,537.1 463.49,535.82 460.6,535.05 457.61,534.8 454.62,535 448.79,536.4 443.24,538.65 437.9,541.39 414.59,555.02" fill="none" stroke="#000000" stroke-width="1"/><polyline id="SvgjsPolyline1309" points="514.78,598.97 511.43,578.24 508.55,563.52 505.72,551.86 502.1,540.42 498.48,532.18 495.36,527.07 491.37,522.6 488.98,520.8 486.32,519.42 483.45,518.55 480.48,518.2 477.48,518.32 471.63,519.62 466.06,521.84 460.73,524.59 453.05,529.28 428.39,546.36 415.66,554.29" fill="none" stroke="#000000" stroke-width="1"/><polyline id="SvgjsPolyline1310" points="428.25,599.75 426.25,587.92 424.32,579.13 421.65,570.54 419.02,565.15 417.21,562.77 414.87,560.92 412,560.11 409.01,560.2 406.07,560.8 400.37,562.66" fill="none" stroke="#000000" stroke-width="1"/><polyline id="SvgjsPolyline1311" points="452.47,598.41 449.24,583.76 445.86,572.25 442.39,563.95 439.26,558.84 437.31,556.57 435.03,554.63 432.39,553.2 429.5,552.44 426.51,552.35 423.54,552.8 417.82,554.59 406.82,559.38" fill="none" stroke="#000000" stroke-width="1"/><polyline id="SvgjsPolyline1312" points="339.25,599.81 341.12,587.96 341.56,581.98" fill="none" stroke="#000000" stroke-width="1"/><polyline id="SvgjsPolyline1313" points="585.64,597.92 585.74,579.92 585.46,567.92 583.84,543.98 582.13,529.08 580.39,517.21 578.31,505.39 575.19,490.72 572.23,479.09 568.76,467.61 565.7,459.14 562.08,450.91 559.15,445.67 555.51,440.91 553.27,438.93 550.64,437.5 547.71,436.91 544.74,437.25 541.93,438.28 536.84,441.43 532.21,445.25 521.52,455.77 486.72,493.04 467.73,512.24 447.86,530.51 438.65,538.21 429.1,545.46 419.11,552.12 411.34,556.65 400.64,562.07 392.39,565.67 383.98,568.89 372.58,572.61 360.99,575.72 349.25,578.22" fill="none" stroke="#000000" stroke-width="1"/><polyline id="SvgjsPolyline1314" points="599.8,113.16 594.79,83.59 592.77,68.72 591.19,53.81 590.09,38.85 589.6,26.86 589.7,2.86" fill="none" stroke="#000000" stroke-width="1"/><polyline id="SvgjsPolyline1315" points="137.86,597.66 133.87,580.11 129.55,565.76 126.34,557.35 123.88,551.88 118.13,541.35 111.3,531.49 103.65,522.25 89.44,506.79 70.77,487.28 60.83,476.05" fill="none" stroke="#000000" stroke-width="1"/><polyline id="SvgjsPolyline1316" points="198.8,598.27 197.38,580.33 195.8,571.47 194.72,568.68 193.09,566.17 190.92,564.1 188.43,562.44 183.06,559.77" fill="none" stroke="#000000" stroke-width="1"/><polyline id="SvgjsPolyline1317" points="314.04,391.92 312.92,394.69 302.86,413.12 296.14,426.53 288.85,442.98 282.28,459.74 275.36,479.57 269.07,499.6 263.26,519.78 250.68,566.1 247.56,574.53 245.62,576.75" fill="none" stroke="#000000" stroke-width="1"/><polyline id="SvgjsPolyline1318" points="229.37,597.8 230.21,588.85 230.27,579.85 229.61,576.94 227.78,574.63 225.09,573.39 207.82,568.29 196.43,564.52 168.46,553.7 157.44,548.93 146.62,543.75 128.23,533.62 120.61,528.83 110.73,522.02 101.21,514.72 94.34,508.91 85.44,500.86 74.63,490.46 66.34,481.79 58.45,472.75" fill="none" stroke="#000000" stroke-width="1"/><polyline id="SvgjsPolyline1319" points="214.41,597.89 215.12,585.92 214.64,576.94 213.86,574.05 212.3,571.51 209.94,569.68 207.23,568.4 190.3,562.3 173.53,555.75 162.45,551.15 151.53,546.17 140.83,540.75 130.36,534.88 120.17,528.54 112.74,523.47" fill="none" stroke="#000000" stroke-width="1"/><polyline id="SvgjsPolyline1320" points="311.22,394.36 313.83,392.91 316.8,392.53 319.68,391.7 325.01,388.94 327.91,393.83 327.57,396.8 325.62,402.47 313,429.68 307.02,443.44 300.4,460.18 293.41,479.98 287.09,500 281.31,520.19 268.72,569.61 266.22,578.25" fill="none" stroke="#000000" stroke-width="1"/><polyline id="SvgjsPolyline1321" points="312.69,394.05 315.23,392.46 318.2,392.25 320.9,390.93 333.49,382.79 343.93,376.87 352.27,373.52 358.14,372.3 361.13,372.17 364.11,372.48 366.99,373.32 369.62,374.75 371.86,376.73 373.65,379.14 374.98,381.82 375.92,384.67 376.87,390.58 376.96,396.58 376.05,405.53 374.36,414.37 372.2,423.1 367.99,437.5 355.13,477.48 346.36,506.17 337.53,537.97 327.92,575.76 327.09,578.64 325.73,581.17" fill="none" stroke="#000000" stroke-width="1"/><polyline id="SvgjsPolyline1322" points="313.36,393.81 315.98,392.37 329.29,380.25 338.63,372.73 348.69,366.2 356.78,362.28 368.2,358.61 374.11,357.67 377.1,357.91 379.89,358.97 382.18,360.88 383.88,363.35 385.11,366.08 386.76,371.85 387.82,377.75 389.23,392.68 389.13,398.68 388.61,404.65 386.1,419.44 383.3,431.1 380.1,442.67 360.02,508.68 343.08,569.36 340.1,577.84 338.1,579.71" fill="none" stroke="#000000" stroke-width="1"/><polyline id="SvgjsPolyline1323" points="158.19,598.41 154.32,580.84 150.67,569.41 148.37,563.87 145.66,558.52 140.77,550.97 134.95,544.11 128.46,537.88 100.69,514.98 87.34,502.9" fill="none" stroke="#000000" stroke-width="1"/><polyline id="SvgjsPolyline1324" points="478.32,599.22 475.91,587.47 473.06,575.81 470.47,567.19 467.25,558.79 464.55,553.44 461.18,548.48 456.84,544.36 454.26,542.84 451.44,541.83 448.48,541.38 445.48,541.42 439.62,542.66 431.33,546.14 404.8,560.14" fill="none" stroke="#000000" stroke-width="1"/><polyline id="SvgjsPolyline1325" points="526.65,597.19 523.78,576.39 520.84,558.64 518.43,546.88 515.43,535.26 512.52,526.75 508.64,518.64 505.18,513.75 503.07,511.61 500.68,509.82 498,508.48 495.11,507.68 492.12,507.43 489.14,507.65 483.34,509.15 477.83,511.53 470.01,515.98 462.54,520.99 428.76,545.95" fill="none" stroke="#000000" stroke-width="1"/><polyline id="SvgjsPolyline1326" points="464.86,599.07 460.92,581.51 458.43,572.87 456.44,567.2 454.07,561.69 451.13,556.47 447.31,551.86 444.97,549.98 442.33,548.57 439.46,547.74 436.47,547.5 433.49,547.78 430.56,548.45 424.93,550.51 411.41,556.99" fill="none" stroke="#000000" stroke-width="1"/><polyline id="SvgjsPolyline1327" points="327.42,597.76 329.78,582.95" fill="none" stroke="#000000" stroke-width="1"/><polyline id="SvgjsPolyline1328" points="573.64,597.82 572.85,567.83 571.47,546.88 568.46,523.07 564.41,502.47 559.57,485.14 556.46,476.7 554.01,471.22 551.12,465.96 547.6,461.11 545.5,458.97 543.11,457.16 540.42,455.85 537.5,455.22 534.5,455.3 531.59,455.97 526.14,458.46 518.75,463.59 507.5,473.5 471.18,509.3 451.33,527.6 442.19,535.37 432.77,542.8 422.94,549.69 415.29,554.42" fill="none" stroke="#000000" stroke-width="1"/><polyline id="SvgjsPolyline1329" points="249.94,599.16 251.68,584.26 251.65,581.27 250.26,578.9" fill="none" stroke="#000000" stroke-width="1"/><polyline id="SvgjsPolyline1330" points="325.12,389.38 333.48,386.08 336.45,385.66 339,387.16 339.91,389.99 339.84,395.98 339.36,398.94 337.72,404.71 335.67,410.35 323,440.82 316.43,457.57 310.34,474.51 305.64,488.76 299.57,508.86 294.78,526.21 281.18,581.55" fill="none" stroke="#000000" stroke-width="1"/><polyline id="SvgjsPolyline1331" points="311.85,394.27 314.39,392.7 317.37,392.42 320.22,391.49 336.27,383.36 341.99,381.58 344.98,381.32 347.89,381.97 350.17,383.9 352.73,389.3 353.28,392.24 353.35,395.24 352.01,404.13 349.57,412.79 329.06,469.17 322.48,489.11 317.26,506.34 307.9,541.1 298.49,582.03" fill="none" stroke="#000000" stroke-width="1"/><polyline id="SvgjsPolyline1332" points="344.15,377.28 349.88,375.5 352.84,375.08 355.84,375.15 358.73,375.92 361.27,377.5 363.23,379.76 364.57,382.44 365.39,385.32 365.94,391.29 365.11,400.24 362.53,411.95 360.1,420.62 340.93,477.47 330.42,511.9 322.64,540.87 312.88,581.72" fill="none" stroke="#000000" stroke-width="1"/><polyline id="SvgjsPolyline1333" points="538.87,598.64 533.9,556.94 531.03,539.17 528.57,527.42 526.12,518.77 522.82,510.4 519.92,505.15 518.18,502.71 513.94,498.49 511.39,496.92 508.59,495.85 505.64,495.36 502.64,495.4 496.81,496.75 491.3,499.12 483.54,503.67 476.16,508.82 440.92,536.8" fill="none" stroke="#000000" stroke-width="1"/><polyline id="SvgjsPolyline1334" points="315.05,598.51 317.83,583.78" fill="none" stroke="#000000" stroke-width="1"/><polyline id="SvgjsPolyline1335" points="561.64,598.12 559.4,559.18 558.43,547.22 556.14,529.37 553.35,514.64 549.48,500.15 546.44,491.68 543.99,486.21 539.32,478.52 535.22,474.16 532.77,472.44 530.04,471.21 527.11,470.57 524.12,470.56 521.17,471.07 515.57,473.2 507.88,477.87 500.74,483.34 493.9,489.19 462.93,517.55 449.41,529.44" fill="none" stroke="#000000" stroke-width="1"/><polyline id="SvgjsPolyline1336" points="262.25,598.01 264.41,583.18" fill="none" stroke="#000000" stroke-width="1"/><polyline id="SvgjsPolyline1337" points="550.26,597.3 547.4,564.42 545.21,543.54 542.94,528.71 540.34,517 536.76,505.55 534.46,500.01 531.65,494.71 528.15,489.85 526.06,487.7 523.69,485.87 521.04,484.47 518.17,483.61 515.19,483.34 512.2,483.6 509.28,484.29 503.73,486.54 496.01,491.15 481.73,502.11 452.09,527.44 438.14,538.82" fill="none" stroke="#000000" stroke-width="1"/><polyline id="SvgjsPolyline1338" points="302.67,599.14 305.68,584.45" fill="none" stroke="#000000" stroke-width="1"/><polyline id="SvgjsPolyline1339" points="274.59,597.07 276.71,585.26 276.9,582.29" fill="none" stroke="#000000" stroke-width="1"/><polyline id="SvgjsPolyline1340" points="290.32,599.73 293.3,585.03" fill="none" stroke="#000000" stroke-width="1"/></g></svg>