<?xml version="1.0" standalone="no"?>
<svg id="SvgjsSvg1001" width="600" height="600" xmlns="http://www.w3.org/2000/svg" version="1.1" xmlns:xlink="http://www.w3.org/1999/xlink" xmlns:svgjs="http://svgjs.com/svgjs" class="svg-paper" viewBox="0 0 600 600"><title id="SvgjsTitle1378">x=sqrt(x*x + y*y)|y=cos(y/sqrt(x*x + y*y))|dTest=0.0|sd=0.2|sm=0.45|ts=0.01 | generated with FlowLines</title><rect id="SvgjsRect1379" width="600" height="600" fill="#ffffff"/><g id="SvgjsG1380"><polyline id="SvgjsPolyline1381" points="0.37,98.7 263.95,60.09 462.08,34.25 599.68,17.69" fill="none" stroke="#9c704a" stroke-width="1"/><polyline id="SvgjsPolyline1382" points="0.02,109.12 204.01,77.69 275.86,67.28 470.91,41.06 599.54,25.24" fill="none" stroke="#9c704a" stroke-width="1"/><polyline id="SvgjsPolyline1383" points="0.12,88.38 267.48,50.69 475.83,24.48 599.79,10.01" fill="none" stroke="#9c704a" stroke-width="1"/><polyline id="SvgjsPolyline1384" points="0.31,119.45 201.74,87.19 275.3,76.07 473.19,48.54 599.99,32.57" fill="none" stroke="#9c704a" stroke-width="1"/><polyline id="SvgjsPolyline1385" points="0.51,77.97 260.91,42.52 469.96,17.02 599.91,2.19" fill="none" stroke="#9c704a" stroke-width="1"/><polyline id="SvgjsPolyline1386" points="0.04,129.87 206,95.59 283.06,83.52 471.32,56.43 599.85,39.82" fill="none" stroke="#9c704a" stroke-width="1"/><polyline id="SvgjsPolyline1387" points="0.34,67.64 244.83,35.4 546.96,0" fill="none" stroke="#9c704a" stroke-width="1"/><polyline id="SvgjsPolyline1388" points="0.41,140.2 71.44,128.43 210.28,103.86 287.86,91.24 473.61,63.59 599.71,46.91" fill="none" stroke="#9c704a" stroke-width="1"/><polyline id="SvgjsPolyline1389" points="0.21,57.31 226.97,28.32 472.55,0.04" fill="none" stroke="#9c704a" stroke-width="1"/><polyline id="SvgjsPolyline1390" points="0.23,150.62 73.56,138.07 217.52,111.47 290.88,99.08 468.77,71.61 599.57,53.83" fill="none" stroke="#9c704a" stroke-width="1"/><polyline id="SvgjsPolyline1391" points="0.12,46.98 206.14,21.42 395.14,0.06" fill="none" stroke="#9c704a" stroke-width="1"/><polyline id="SvgjsPolyline1392" points="0.09,161.05 79.84,146.9 224.17,119 293.9,106.76 472.83,78.16 599.41,60.58" fill="none" stroke="#9c704a" stroke-width="1"/><polyline id="SvgjsPolyline1393" points="0.07,36.65 180.56,14.9 313.53,0.01" fill="none" stroke="#9c704a" stroke-width="1"/><polyline id="SvgjsPolyline1394" points="0.58,171.37 68.48,159.07 217.26,128.97 299.28,113.86 466.79,86.06 599.84,67.07" fill="none" stroke="#9c704a" stroke-width="1"/><polyline id="SvgjsPolyline1395" points="0.05,26.32 227.74,0.02" fill="none" stroke="#9c704a" stroke-width="1"/><polyline id="SvgjsPolyline1396" points="0.53,181.8 75.42,167.74 222.73,136.45 304.64,120.75 462.51,93.55 530.11,83.12 599.64,73.45" fill="none" stroke="#9c704a" stroke-width="1"/><polyline id="SvgjsPolyline1397" points="0.06,15.99 140.76,0.02" fill="none" stroke="#9c704a" stroke-width="1"/><polyline id="SvgjsPolyline1398" points="0.52,192.22 78.86,177.04 225.25,144.37 309.38,127.53 468.87,99.12 531.69,89.23 599.42,79.64" fill="none" stroke="#9c704a" stroke-width="1"/><polyline id="SvgjsPolyline1399" points="0.11,5.66 51.4,0.02" fill="none" stroke="#9c704a" stroke-width="1"/><polyline id="SvgjsPolyline1400" points="0.54,202.64 83.49,186.04 228.93,151.88 312.32,134.43 398.38,118.04 467.49,105.74 532.64,95.22 599.75,85.54" fill="none" stroke="#9c704a" stroke-width="1"/><polyline id="SvgjsPolyline1401" points="0.01,213.18 83.47,196.04 240.17,157.42 327.57,138.61 407.63,122.86 471.38,111.24 535.32,100.72 599.44,91.32" fill="none" stroke="#9c704a" stroke-width="1"/><polyline id="SvgjsPolyline1402" points="0.11,223.6 46.59,214.3 91.65,204.12 242.6,164.77 330.39,144.98 405.04,129.68 468.12,117.76 532.61,106.84 599.66,96.82" fill="none" stroke="#9c704a" stroke-width="1"/><polyline id="SvgjsPolyline1403" points="0.24,234.02 46.68,224.55 91.1,214.24 134.64,202.89 246.73,171.5 334.32,150.86 403.56,136.09 470.11,123.12 535.15,111.9 599.81,102.09" fill="none" stroke="#9c704a" stroke-width="1"/><polyline id="SvgjsPolyline1404" points="0.4,244.44 50.32,234.03 101.04,221.7 142.09,210.33 251.95,177.7 290.29,167.8 341.68,155.68 407.88,141.06 469.06,128.8 532.87,117.51 599.87,107.16" fill="none" stroke="#9c704a" stroke-width="1"/><polyline id="SvgjsPolyline1405" points="0.58,254.86 55.73,243.08 102.28,231.36 146.07,218.66 252.46,184.98 293.56,173.79 344.83,161.15 411.5,145.89 471.45,133.59 533.45,122.42 599.84,112.01" fill="none" stroke="#9c704a" stroke-width="1"/><polyline id="SvgjsPolyline1406" points="0.2,265.4 55.91,253.35 108.74,239.58 154.03,225.63 257.5,190.74 295.58,179.85 347.28,166.51 413.83,150.72 471.96,138.49 530.96,127.62 599.69,116.66" fill="none" stroke="#9c704a" stroke-width="1"/><polyline id="SvgjsPolyline1407" points="0.42,275.82 61.35,262.37 114.04,248.07 157.97,233.8 232.31,206.48 260.13,196.98 301.51,184.57 353.08,170.73 412.51,156.12 470.56,143.53 534.84,131.49 599.41,121.09" fill="none" stroke="#9c704a" stroke-width="1"/><polyline id="SvgjsPolyline1408" points="0.07,286.35 62.73,272.39 118.77,256.71 164.15,241.11 235.03,213.12 263.21,202.84 302.1,190.52 356.4,175.26 416.3,160.08 470.78,148.01 533.84,135.97 599.56,125.23" fill="none" stroke="#9c704a" stroke-width="1"/><polyline id="SvgjsPolyline1409" points="0.31,296.77 35.52,289.28 67.61,281.55 97.7,273.32 123.49,265.35 167.5,249.43 234.86,220.8 263.88,209.34 300.82,196.85 356.05,180.51 411.74,165.79 469.05,152.66 531.47,140.47 599.54,129.18" fill="none" stroke="#9c704a" stroke-width="1"/><polyline id="SvgjsPolyline1410" points="0.56,307.19 36.94,299.42 70.75,291.17 101.95,282.43 129.36,273.62 174.16,256.4 240.12,226.08 267.77,214.45 306.8,200.65 360.13,184.25 413.97,169.61 469.47,156.63 532.45,144.15 599.9,132.85" fill="none" stroke="#9c704a" stroke-width="1"/><polyline id="SvgjsPolyline1411" points="0.23,317.72 37.78,309.71 72.74,301.13 105.05,291.93 135.23,281.9 156.53,273.77 180.76,263.29 244.1,231.67 272.56,218.91 310.82,204.75 359.94,188.96 413.65,173.83 472.01,159.91 532.6,147.76 599.45,136.44" fill="none" stroke="#9c704a" stroke-width="1"/><polyline id="SvgjsPolyline1412" points="0.47,328.13 40.37,319.62 77.63,310.36 112.18,300.24 141.09,290.22 164.45,280.78 185.68,270.94 248.41,236.87 274.34,224.35 312.88,209.24 364.08,192.1 415.96,177.13 469,164.19 526.59,152.32 599.91,139.68" fill="none" stroke="#9c704a" stroke-width="1"/><polyline id="SvgjsPolyline1413" points="0.11,338.66 40.61,330.09 80.21,320.26 114.16,310.25 145.83,299.05 169.06,289.27 192.71,277.57 210.47,267.52 252.5,241.95 275.35,229.99 311.29,214.87 362.2,196.88 415.08,181.06 470.97,167.16 530.31,154.86 599.47,142.87" fill="none" stroke="#9c704a" stroke-width="1"/><polyline id="SvgjsPolyline1414" points="0.33,349.08 46.11,339.38 87.99,328.79 124.7,317.54 153.93,306.66 177.48,296.12 199.69,284.23 216.01,274.12 253.79,248.59 277.72,234.86 296.17,226.16 316.11,217.85 364.55,200.09 414.43,184.74 469.08,170.82 531.32,157.73 599.88,145.76" fill="none" stroke="#9c704a" stroke-width="1"/><polyline id="SvgjsPolyline1415" points="0.52,359.49 51.01,348.83 92.87,338.17 128.98,327.01 161.48,314.59 185.87,303.03 206.13,291.33 223.94,279.12 258.91,252.75 279.78,239.75 296.36,231.33 315.54,222.78 363.67,204.2 413.41,188.37 468.56,174.01 528.4,161.2 599.89,148.57" fill="none" stroke="#9c704a" stroke-width="1"/><polyline id="SvgjsPolyline1416" points="0.11,370.01 51.8,359.26 98.32,347.47 135.54,335.83 169.59,322.43 193.74,310.38 213.59,298.01 231.23,284.54 262.72,257.67 283.06,243.86 296.21,236.66 316.24,227.09 362.37,208.35 411.36,192.17 465.25,177.74 529.15,163.83 599.44,151.31" fill="none" stroke="#9c704a" stroke-width="1"/><polyline id="SvgjsPolyline1417" points="0.25,380.42 55.49,369.06 102.61,357.18 144.94,343.79 178.82,329.98 201.15,318.32 221.59,304.66 237.57,291.05 266.26,262.9 275.07,255.67 285.41,248.47 299.9,239.99 320.28,229.77 362.82,211.78 409.95,195.71 465.5,180.52 528.78,166.59 599.65,153.87" fill="none" stroke="#9c704a" stroke-width="1"/><polyline id="SvgjsPolyline1418" points="0.37,390.84 60.33,378.64 110.94,365.85 153.22,352.32 173.33,344.45 188.63,337.53 211.75,324.8 222.17,317.72 231.57,310.27 245.33,296.89 270.87,267.43 279.26,259.72 288.33,252.82 304.1,242.97 322.12,233.41 341.66,224.22 365.48,214.31 411.95,198.17 467.46,182.84 529.55,169.08 599.81,156.39" fill="none" stroke="#9c704a" stroke-width="1"/><polyline id="SvgjsPolyline1419" points="0.45,401.25 65.74,388.14 119.83,374.47 145.08,366.75 164.9,359.82 184.93,351.75 200.68,344.36 223.98,330.76 232.7,324.38 241.76,316.52 254.52,302.2 275.26,272.79 283.05,264.48 291.76,257.12 306.14,247.34 323.85,237.23 344.28,227.12 365.2,218.06 386.5,209.91 410.36,201.81 464.02,186.56 528.98,171.89 599.81,158.99" fill="none" stroke="#9c704a" stroke-width="1"/><polyline id="SvgjsPolyline1420" points="0.49,411.66 68.78,398.22 127.57,383.55 153.4,375.7 176.61,367.56 196.06,359.64 213.38,351.37 226.97,343.71 237.46,336.73 247.3,328.88 255.01,321.32 260.73,314.37 265.7,306.88 276.91,284.98 281.55,277.28 287.49,269.75 296.16,261.46 310.61,250.75 326.99,240.73 346.12,230.72 366.9,221.34 387.55,213.19 410.78,205.1 436.01,197.33 464.95,189.44 527.53,175.12 599.51,161.86" fill="none" stroke="#9c704a" stroke-width="1"/><polyline id="SvgjsPolyline1421" points="0.5,422.07 74.72,407.71 105.7,400.54 135.88,392.62 163.45,384.32 188.38,375.63 210.59,366.55 229.48,357.37 243.49,349.25 254.35,341.75 264.42,333.23 271.74,325.3 276.89,317.93 280.42,310.98 286.92,289.77 290.22,282.06 295.52,274.06 303.26,265.71 317.15,254.28 332.67,244.04 351.6,233.65 371.74,224.3 390.65,216.66 415.54,207.86 441.33,199.89 469.11,192.31 531.1,178.1 599.53,165.44" fill="none" stroke="#9c704a" stroke-width="1"/><polyline id="SvgjsPolyline1422" points="0.47,432.48 71.24,419.26 132.59,404.97 182.66,390.24 204.72,382.43 224.74,374.34 243.24,365.73 262.15,355.31 277.11,345.3 289.99,334.54 298.48,325.24 304,316.68 307.29,307.69 309.62,294.09 311.47,287.76 314.82,280.72 319.54,273.78 327.21,265.36 337.25,256.8 348.57,248.92 362.56,240.75 382.49,231 405.25,221.66 431.3,212.56 459.45,204.09 490.8,195.88 524.71,188.09 599.55,173.76" fill="none" stroke="#9c704a" stroke-width="1"/><polyline id="SvgjsPolyline1423" points="0.2,427.93 76.8,413.28 113.63,404.76 143.79,396.77 171.92,388.23 197.38,379.27 219.03,370.38 238.99,360.67 253.01,352.56 264.87,344.4 275.83,335.08 283.47,326.63 288.52,319.19 292.01,311.56 293.53,305.76 295.4,292.1 297.98,284.75 303.24,276.03 311.94,266.13 324.24,255.6 339.63,245.17 356.93,235.53 376.47,226.34 396.49,218.23 418.54,210.41 468.61,195.68 529.96,181.4 599.55,168.39" fill="none" stroke="#9c704a" stroke-width="1"/><polyline id="SvgjsPolyline1424" points="0.4,442.89 71.24,430.05 135.06,415.78 187.65,401.13 212.15,393.04 236.32,384.02 257.87,374.91 278.97,364.8 297.38,354.71 311.47,345.56 319.95,338.88 328.59,330.56 352.99,300.93 366.59,287.39 385.85,273.11 408.92,260.3 426.43,252.42 443.75,245.66 467.04,237.74 488.89,231.23 540.1,218.4 599.5,206.4" fill="none" stroke="#9c704a" stroke-width="1"/><polyline id="SvgjsPolyline1425" points="0.16,437.86 71.56,424.7 131.81,410.97 186.02,395.44 209.27,387.42 229.95,379.34 251.84,369.51 270.97,359.49 288.32,348.77 302.69,337.94 310.08,330.92 316.8,322.48 321.34,314.72 332.56,291.49 337.48,283.96 342.79,277.46 350.92,269.47 360.3,262 372.32,254.08 384.9,247.07 404.44,237.87 423.37,230.29 446.04,222.42 471.31,214.78 529.52,200.27 599.58,186.51" fill="none" stroke="#9c704a" stroke-width="1"/><polyline id="SvgjsPolyline1426" points="0.47,435.47 73.02,421.97 132.06,408.33 184.48,393.12 209.39,384.36 229.42,376.29 251.7,365.86 269.02,356.28 284.55,346.06 297.59,335.48 305.44,327.22 310.85,319.31 314.34,311.68 321.83,289.53 325.76,282.11 331.02,274.81 338.42,266.96 347.59,259.23 358.43,251.7 372.97,243.28 392.96,233.65 414.09,225.09 440.17,216.07 464.88,208.66 496.8,200.29 527.79,193.15 599.65,179.26" fill="none" stroke="#9c704a" stroke-width="1"/><polyline id="SvgjsPolyline1427" points="0.29,453.3 68.84,441.3 130.48,428.29 185.11,414.31 236.1,398.46 283.88,380.65 304.85,371.7 321.06,363.87 342.83,351.2 381.22,324.44 398.92,313.14 421.59,300.83 445.1,290.24 476.03,278.75 512.19,267.75 554.67,257.08 599.88,247.56" fill="none" stroke="#9c704a" stroke-width="1"/><polyline id="SvgjsPolyline1428" points="0.42,448.09 69.52,435.77 132.84,422 187.31,407.4 235.71,391.36 256.98,383.14 281.78,372.49 301.77,362.83 315.92,354.94 326.98,347.74 337.01,340.12 367.49,313 383.5,300.37 403.18,287.74 427.23,275.48 462.34,261.52 500.7,249.51 546.06,238.01 599.52,226.9" fill="none" stroke="#9c704a" stroke-width="1"/><polyline id="SvgjsPolyline1429" points="0.36,440.49 68.83,428.02 132.63,413.69 186.9,398.37 211.91,389.9 232.64,381.96 253.01,373.14 274.49,362.45 292.15,352.24 306.45,342.34 315.5,334.47 322.7,326.43 342.82,295.87 354.46,282.17 362.91,274.53 372.99,266.98 384.15,259.92 396.8,253.05 412.55,245.67 433.15,237.4 455.84,229.57 479.39,222.47 534.09,208.76 599.99,195.63" fill="none" stroke="#9c704a" stroke-width="1"/><polyline id="SvgjsPolyline1430" points="0.17,445.58 71.62,432.7 132.55,419.26 188.11,404.08 236.35,387.56 277.18,370.15 296.99,360.15 312.5,351.01 322.3,344.1 331.49,336.38 359.06,307.97 374.73,294 393.9,280.61 418.21,267.57 452.61,253.44 494.92,240.01 542.03,228.1 599.62,216.27" fill="none" stroke="#9c704a" stroke-width="1"/><polyline id="SvgjsPolyline1431" points="0.13,463.71 66.39,452.51 127.57,440.27 180.71,427.72 237.93,411.79 290.48,394.93 328.17,380.94 355.54,368.68 420.54,336.35 442.57,326.84 467.25,317.46 496.31,307.9 527.48,299.06 561.86,290.62 599.41,282.6" fill="none" stroke="#9c704a" stroke-width="1"/><polyline id="SvgjsPolyline1432" points="0.45,458.44 67.86,446.82 130.14,433.97 183.15,420.89 236.1,405.31 286.01,388.09 325.43,371.97 350.52,359.11 409.26,325.27 431.38,314.52 455.19,304.58 485.74,293.8 519.1,283.92 554.59,274.98 599.76,265.3" fill="none" stroke="#9c704a" stroke-width="1"/><polyline id="SvgjsPolyline1433" points="0.42,450.67 71.9,437.98 132.89,424.82 188.58,410.12 236.53,394.62 282.34,376.7 303.64,367.02 318.54,359.26 339.74,345.66 373.71,318.98 390.84,306.84 413.61,293.51 437.47,282.21 468.26,270.37 504.92,258.95 546.77,248.25 599.6,237.1" fill="none" stroke="#9c704a" stroke-width="1"/><polyline id="SvgjsPolyline1434" points="0.52,474.03 66.84,463.16 128.71,451.31 187.85,438.08 245.96,423.16 298.47,408.23 337.88,395.56 364.89,385.55 436.2,357.04 481.56,341.37 535.27,326.25 599.66,311.82" fill="none" stroke="#9c704a" stroke-width="1"/><polyline id="SvgjsPolyline1435" points="0.23,468.84 67.1,457.69 128.33,445.67 186.79,432.15 241.83,417.35 295.81,401.01 333.78,387.82 359.34,377.41 425.66,347.89 471.67,330.48 498.54,321.93 530.91,312.93 562.98,305.14 599.94,297.25" fill="none" stroke="#9c704a" stroke-width="1"/><polyline id="SvgjsPolyline1436" points="0.28,484.44 69.02,473.51 128.03,462.69 192.03,449.23 250.43,435.46 302.18,422.31 345.49,410.08 447.96,376 492.17,362.57 542.11,349.6 599.57,337.16" fill="none" stroke="#9c704a" stroke-width="1"/><polyline id="SvgjsPolyline1437" points="0.46,479.16 65.03,468.76 125.78,457.43 182.68,445.21 244.47,430.13 297.79,415.87 338.61,403.68 368.7,393.41 441.93,366.54 486.44,352.11 539.72,337.7 599.48,324.54" fill="none" stroke="#9c704a" stroke-width="1"/><polyline id="SvgjsPolyline1438" points="0.59,494.76 65.24,484.85 123.76,474.68 185.59,462.59 261.81,446.06 314.41,433.82 352.19,424.17 456.47,393.85 501.05,381.71 547.13,370.62 600,359.63" fill="none" stroke="#9c704a" stroke-width="1"/><polyline id="SvgjsPolyline1439" points="0.01,489.6 65.22,479.43 129.59,467.9 188.97,455.8 255.1,440.84 308.15,427.94 346.98,417.53 454.71,384.12 498.56,371.6 546.89,359.59 599.71,348.41" fill="none" stroke="#9c704a" stroke-width="1"/><polyline id="SvgjsPolyline1440" points="0.27,505.16 67.33,495.2 130.65,484.58 193.76,472.81 272.56,456.89 361.58,437.06 512.72,398.45 556.65,388.72 599.62,380.22" fill="none" stroke="#9c704a" stroke-width="1"/><polyline id="SvgjsPolyline1441" points="0.5,515.49 57.52,507.36 125.08,496.65 196.58,484.1 285.61,467.31 368.46,450.2 520.42,414.92 599.87,399.17" fill="none" stroke="#9c704a" stroke-width="1"/><polyline id="SvgjsPolyline1442" points="0.09,525.89 64.87,516.9 134.85,506.13 296.84,478.12 375.2,463.03 526.59,430.74 599.71,417" fill="none" stroke="#9c704a" stroke-width="1"/><polyline id="SvgjsPolyline1443" points="0.24,536.21 130.36,517.9 300.32,490.25 374.15,477.06 521.3,447.97 599.84,433.84" fill="none" stroke="#9c704a" stroke-width="1"/><polyline id="SvgjsPolyline1444" points="0.35,546.54 131.75,528.7 310.23,501.18 382.42,489.01 527.57,462.26 599.73,449.94" fill="none" stroke="#9c704a" stroke-width="1"/><polyline id="SvgjsPolyline1445" points="0.43,556.86 133.69,539.4 321.28,511.9 390.01,500.92 526.58,477.31 599.42,465.43" fill="none" stroke="#9c704a" stroke-width="1"/><polyline id="SvgjsPolyline1446" points="0.47,567.19 122.51,551.84 325.75,523.56 401.68,512.04 599.55,480.31" fill="none" stroke="#9c704a" stroke-width="1"/><polyline id="SvgjsPolyline1447" points="0.48,577.52 126.15,562.22 329.56,535.2 599.54,494.76" fill="none" stroke="#9c704a" stroke-width="1"/><polyline id="SvgjsPolyline1448" points="0.45,587.84 134.52,572.02 332.72,546.82 599.43,508.84" fill="none" stroke="#9c704a" stroke-width="1"/><polyline id="SvgjsPolyline1449" points="0.39,598.17 128.56,583.57 340,557.82 599.81,522.51" fill="none" stroke="#9c704a" stroke-width="1"/><polyline id="SvgjsPolyline1450" points="76.69,599.97 360.97,566.82 599.54,535.67" fill="none" stroke="#9c704a" stroke-width="1"/><polyline id="SvgjsPolyline1451" points="167.29,599.97 386.08,575.02 599.79,548.11" fill="none" stroke="#9c704a" stroke-width="1"/><polyline id="SvgjsPolyline1452" points="259.67,599.94 398.61,584.42 599.93,559.98" fill="none" stroke="#9c704a" stroke-width="1"/><polyline id="SvgjsPolyline1453" points="353.26,599.95 599.41,571.43" fill="none" stroke="#9c704a" stroke-width="1"/><polyline id="SvgjsPolyline1454" points="445.07,599.95 599.47,582.36" fill="none" stroke="#9c704a" stroke-width="1"/><polyline id="SvgjsPolyline1455" points="535.66,599.96 599.47,592.9" fill="none" stroke="#9c704a" stroke-width="1"/></g></svg>